<svg width="28" height="14" viewBox="0 0 28 14" fill="none" xmlns="http://www.w3.org/2000/svg">
<path d="M4.55 2.02525H2.45C1.86812 2.02525 1.4 2.33434 1.4 2.71853V5.72273H0.35C0.1575 5.72273 0 5.82672 0 5.95382V7.34038C0 7.46748 0.1575 7.57147 0.35 7.57147H1.4V10.5757C1.4 10.9599 1.86812 11.269 2.45 11.269H4.55C5.13188 11.269 5.6 10.9599 5.6 10.5757V2.71853C5.6 2.33434 5.13188 2.02525 4.55 2.02525ZM27.65 5.72273H26.6V2.71853C26.6 2.33434 26.1319 2.02525 25.55 2.02525H23.45C22.8681 2.02525 22.4 2.33434 22.4 2.71853V10.5757C22.4 10.9599 22.8681 11.269 23.45 11.269H25.55C26.1319 11.269 26.6 10.9599 26.6 10.5757V7.57147H27.65C27.8425 7.57147 28 7.46748 28 7.34038V5.95382C28 5.82672 27.8425 5.72273 27.65 5.72273ZM19.95 0.176514H17.85C17.2681 0.176514 16.8 0.4856 16.8 0.869791V5.72273H11.2V0.869791C11.2 0.4856 10.7319 0.176514 10.15 0.176514H8.05C7.46812 0.176514 7 0.4856 7 0.869791V12.4244C7 12.8086 7.46812 13.1177 8.05 13.1177H10.15C10.7319 13.1177 11.2 12.8086 11.2 12.4244V7.57147H16.8V12.4244C16.8 12.8086 17.2681 13.1177 17.85 13.1177H19.95C20.5319 13.1177 21 12.8086 21 12.4244V0.869791C21 0.4856 20.5319 0.176514 19.95 0.176514Z" fill="#001449"/>
</svg>
