<svg width="20" height="20" viewBox="0 0 25 25" fill="none" xmlns="http://www.w3.org/2000/svg">
<path d="M12.5 0C5.59476 0 0 5.59476 0 12.5C0 19.4052 5.59476 25 12.5 25C19.4052 25 25 19.4052 25 12.5C25 5.59476 19.4052 0 12.5 0ZM18.629 15.7813C18.8659 16.0181 18.8659 16.4012 18.629 16.6381L16.6331 18.629C16.3962 18.8659 16.0131 18.8659 15.7762 18.629L12.5 15.3226L9.21875 18.629C8.98185 18.8659 8.59879 18.8659 8.36189 18.629L6.37097 16.6331C6.13407 16.3962 6.13407 16.0131 6.37097 15.7762L9.67742 12.5L6.37097 9.21875C6.13407 8.98185 6.13407 8.59879 6.37097 8.36189L8.36694 6.36593C8.60383 6.12903 8.9869 6.12903 9.22379 6.36593L12.5 9.67742L15.7813 6.37097C16.0181 6.13407 16.4012 6.13407 16.6381 6.37097L18.6341 8.36694C18.871 8.60383 18.871 8.9869 18.6341 9.22379L15.3226 12.5L18.629 15.7813Z" fill="black"/>
</svg>
