<svg width="105" height="120" viewBox="0 0 70 105" fill="none" xmlns="http://www.w3.org/2000/svg">
<g clip-path="url(#clip0_118_4063)">
<path d="M57.8807 101.197C58.2923 101.225 58.5198 100.658 58.2084 100.328L58.1774 100.191C58.1815 100.181 58.1856 100.17 58.1897 100.159C58.606 99.0582 60.0167 99.0658 60.4294 100.168C60.7957 101.146 61.2621 102.126 61.3769 103.16C61.4284 103.617 61.4053 104.082 61.3139 104.53C62.1722 102.451 62.6239 100.181 62.6239 97.8983C62.6239 97.3247 62.5956 96.7511 62.5377 96.179C62.49 95.711 62.4244 95.2459 62.3395 94.785C61.8801 92.2939 60.8854 89.9211 59.4506 87.9393C58.7608 87.5213 58.1856 86.8678 57.8382 86.0845C57.7133 85.802 57.6155 85.4981 57.5692 85.1885C57.6477 85.1999 57.8652 83.8744 57.806 83.7931C57.9154 83.609 58.1112 83.5176 58.2306 83.338C58.8248 82.4448 59.6435 82.6007 60.0708 83.8145C60.9838 84.3254 60.9926 85.1726 60.4324 85.9875C60.076 86.5059 60.0271 87.2074 59.7144 87.7624C59.7465 87.8081 59.78 87.8523 59.8122 87.898C60.4021 88.7369 60.9124 89.6387 61.3425 90.586C61.2209 89.5332 61.4004 88.2647 61.7064 87.4471C62.0547 86.5155 62.7075 85.7309 63.2824 84.9255C63.973 83.9581 65.389 84.3803 65.5107 85.6066C65.5118 85.6185 65.513 85.6303 65.5141 85.6422C65.4287 85.6956 65.3451 85.7524 65.2633 85.8123C64.7972 86.1541 64.9583 86.9552 65.5106 87.0497L65.5231 87.0519C65.4922 87.3929 65.4395 87.731 65.3623 88.0635C66.0998 91.2259 64.5075 92.3777 62.234 92.4294C62.1838 92.4579 62.1349 92.4865 62.0847 92.5136C62.315 93.2327 62.4991 93.9703 62.6355 94.718C62.7577 95.3786 62.8427 96.0463 62.8903 96.7169C62.9495 97.563 62.9443 98.4133 62.88 99.258L62.8838 99.228C63.0472 98.2978 63.5028 97.4289 64.1642 96.8268C65.1496 95.9293 66.5417 95.5988 67.6047 94.8775C68.1164 94.5302 68.7721 94.979 68.6828 95.6367L68.6784 95.6682C68.5201 95.7395 68.3657 95.8223 68.2164 95.915C68.1311 95.9685 68.0474 96.0252 67.9657 96.0851C67.4996 96.4269 67.6607 97.2281 68.2129 97.3226L68.2255 97.3247C68.2345 97.3261 68.2422 97.3276 68.2512 97.329C67.9797 98.0438 67.6013 98.7073 67.1278 99.2794C66.6666 102.04 64.686 102.302 62.5673 101.498H62.566C62.3343 102.617 61.9959 103.71 61.561 104.751H57.9707C57.9578 104.707 57.9463 104.661 57.9347 104.617C58.2667 104.64 58.6013 104.618 58.9281 104.551C58.6617 104.189 58.3954 103.824 58.129 103.461C58.1226 103.454 58.1174 103.447 58.1123 103.44C57.9771 103.254 57.8407 103.07 57.7056 102.885L57.7055 102.885C57.6971 102.315 57.7588 101.748 57.8807 101.197Z" fill="#F2F2F2"/>
<path d="M20.3002 98.0767C19.5273 98.1304 19.1001 97.0656 19.6849 96.4451L19.7431 96.1886C19.7354 96.1681 19.7277 96.1476 19.7199 96.1271C18.9383 94.0605 16.2891 94.0748 15.5141 96.1444C14.8262 97.9813 13.9505 99.8214 13.7348 101.764C13.6381 102.621 13.6816 103.494 13.8532 104.336C12.2414 100.432 11.3932 96.1692 11.3932 91.8823C11.3932 90.8052 11.4464 89.7281 11.5551 88.6537C11.6445 87.7749 11.7678 86.9015 11.9273 86.0361C12.7899 81.358 14.6579 76.9023 17.3523 73.1807C18.6476 72.3957 19.7277 71.1685 20.3802 69.6976C20.6146 69.1671 20.7982 68.5964 20.8852 68.015C20.7378 68.0364 20.3294 65.5473 20.4406 65.3946C20.2352 65.049 19.8675 64.8772 19.6431 64.5399C18.5274 62.8626 16.9901 63.1555 16.1875 65.4348C14.4732 66.3942 14.4566 67.9852 15.5085 69.5154C16.1778 70.4889 16.2697 71.8062 16.8569 72.8485C16.7965 72.9342 16.7337 73.0173 16.6733 73.103C15.5654 74.6785 14.6072 76.3719 13.7995 78.1509C14.0278 76.1737 13.6908 73.7918 13.1162 72.2564C12.4621 70.5069 11.2362 69.0335 10.1566 67.5211C8.85983 65.7045 6.20071 66.4973 5.97225 68.8001C5.97003 68.8224 5.96788 68.8447 5.96577 68.867C6.12612 68.9673 6.28322 69.0739 6.43667 69.1864C7.31196 69.8282 7.00946 71.3326 5.97234 71.5101L5.94886 71.5142C6.00686 72.1545 6.10593 72.7895 6.25091 73.4138C4.86594 79.3524 7.856 81.5153 12.1254 81.6125C12.2197 81.6661 12.3115 81.7197 12.4057 81.7706C11.9732 83.121 11.6276 84.5062 11.3715 85.9101C11.1419 87.1506 10.9824 88.4046 10.893 89.6638C10.7818 91.2527 10.7915 92.8495 10.9123 94.4357L10.9051 94.3794C10.5982 92.6325 9.74276 91.0008 8.50067 89.8702C6.65034 88.1849 4.03617 87.5643 2.03999 86.2096C1.07908 85.5575 -0.152246 86.4002 0.0154574 87.6354L0.023622 87.6946C0.320848 87.8285 0.61082 87.9839 0.891137 88.1581C1.05149 88.2584 1.20859 88.3649 1.36204 88.4775C2.23733 89.1193 1.93483 90.6237 0.89771 90.8012L0.874206 90.8052C0.857297 90.8079 0.842791 90.8106 0.8259 90.8133C1.33578 92.1556 2.04621 93.4015 2.93548 94.4759C3.80147 99.66 7.52091 100.152 11.4996 98.6422H11.502C11.9369 100.743 12.5725 102.795 13.3893 104.751H20.1313C20.1555 104.668 20.1772 104.582 20.199 104.499C19.5755 104.542 18.9472 104.502 18.3334 104.376C18.8336 103.695 19.3338 103.01 19.8341 102.329C19.8461 102.316 19.8558 102.302 19.8655 102.289C20.1192 101.94 20.3753 101.595 20.6291 101.247L20.6292 101.246C20.6451 100.177 20.5295 99.1112 20.3004 98.0769L20.3002 98.0767Z" fill="#F2F2F2"/>
<path d="M44.8367 31.7155C44.8367 31.6646 44.8347 31.6161 44.8327 31.5653C44.8327 31.5233 44.8307 31.4813 44.8287 31.4393H42.6112C42.5594 31.499 42.5076 31.5542 42.4538 31.6028C42.4299 31.6271 42.404 31.6492 42.3801 31.6691C42.3622 31.6867 42.3442 31.7 42.3263 31.7133C42.2765 31.7508 42.2287 31.7839 42.1789 31.8105C42.1609 31.8215 42.143 31.8303 42.1251 31.837C42.0812 31.859 42.0374 31.8723 41.9936 31.8811H44.8387C44.8387 31.8259 44.8387 31.7707 44.8367 31.7155ZM40.4196 31.7707C40.3499 31.7663 40.2822 31.7596 40.2124 31.7552C39.9913 31.7376 39.7661 31.7221 39.541 31.7044C39.4274 31.6956 39.3159 31.689 39.2043 31.6801C39.1923 31.6801 39.1824 31.6757 39.1704 31.6713C39.1645 31.6669 39.1585 31.6646 39.1525 31.658C39.1405 31.6514 39.1266 31.6381 39.1146 31.6227C39.1027 31.6094 39.0907 31.5918 39.0788 31.5741C39.0688 31.5586 39.0569 31.5387 39.0469 31.5211C39.033 31.4946 39.021 31.4681 39.0071 31.4393H38.1962C38.1842 31.4636 38.1723 31.4835 38.1623 31.5012L38.1583 31.5056C38.1484 31.5211 38.1384 31.5365 38.1284 31.5476C38.1045 31.5763 38.0826 31.5918 38.0607 31.5895C38.0189 31.5851 37.977 31.5807 37.9372 31.5697C37.9212 31.5674 37.9073 31.563 37.8914 31.5586C37.8774 31.5542 37.8615 31.5498 37.8475 31.5454C37.8156 31.5343 37.7838 31.5211 37.7539 31.5078C37.7459 31.5034 37.7379 31.5012 37.73 31.4968C37.6961 31.4791 37.6622 31.4614 37.6284 31.4393H35.114C35.0164 31.5829 34.9267 31.7309 34.8411 31.8811H41.7605C41.356 31.8414 40.8978 31.806 40.4196 31.7707ZM44.8367 31.7155C44.8367 31.6646 44.8347 31.6161 44.8327 31.5653C44.8327 31.5233 44.8307 31.4813 44.8287 31.4393H42.6112C42.5594 31.499 42.5076 31.5542 42.4538 31.6028C42.4299 31.6271 42.404 31.6492 42.3801 31.6691C42.3622 31.6867 42.3442 31.7 42.3263 31.7133C42.2765 31.7508 42.2287 31.7839 42.1789 31.8105C42.1609 31.8215 42.143 31.8303 42.1251 31.837C42.0812 31.859 42.0374 31.8723 41.9936 31.8811H44.8387C44.8387 31.8259 44.8387 31.7707 44.8367 31.7155ZM40.4196 31.7707C40.3499 31.7663 40.2822 31.7596 40.2124 31.7552C39.9913 31.7376 39.7661 31.7221 39.541 31.7044C39.4274 31.6956 39.3159 31.689 39.2043 31.6801C39.1923 31.6801 39.1824 31.6757 39.1704 31.6713C39.1645 31.6669 39.1585 31.6646 39.1525 31.658C39.1405 31.6514 39.1266 31.6381 39.1146 31.6227C39.1027 31.6094 39.0907 31.5918 39.0788 31.5741C39.0688 31.5586 39.0569 31.5387 39.0469 31.5211C39.033 31.4946 39.021 31.4681 39.0071 31.4393H38.1962C38.1842 31.4636 38.1723 31.4835 38.1623 31.5012L38.1583 31.5056C38.1484 31.5211 38.1384 31.5365 38.1284 31.5476C38.1045 31.5763 38.0826 31.5918 38.0607 31.5895C38.0189 31.5851 37.977 31.5807 37.9372 31.5697C37.9212 31.5674 37.9073 31.563 37.8914 31.5586C37.8774 31.5542 37.8615 31.5498 37.8475 31.5454C37.8156 31.5343 37.7838 31.5211 37.7539 31.5078C37.7459 31.5034 37.7379 31.5012 37.73 31.4968C37.6961 31.4791 37.6622 31.4614 37.6284 31.4393H35.114C35.0164 31.5829 34.9267 31.7309 34.8411 31.8811H41.7605C41.356 31.8414 40.8978 31.806 40.4196 31.7707ZM66.2105 31.4393H9.23744C7.14747 31.4393 5.448 33.3236 5.448 35.6409V100.798C5.448 103.116 7.14747 105 9.23744 105H66.2105C68.3005 105 70 103.116 70 100.798V35.6409C70 33.3236 68.3005 31.4393 66.2105 31.4393ZM69.6015 100.798C69.6015 102.873 68.0814 104.558 66.2105 104.558H9.23744C7.36663 104.558 5.84647 102.873 5.84647 100.798V35.6409C5.84647 33.5666 7.36663 31.8811 9.23744 31.8811H66.2105C68.0814 31.8811 69.6015 33.5666 69.6015 35.6409V100.798ZM40.4196 31.7707C40.3499 31.7663 40.2822 31.7596 40.2124 31.7552C39.9913 31.7376 39.7661 31.7221 39.541 31.7044C39.4274 31.6956 39.3159 31.689 39.2043 31.6801C39.1923 31.6801 39.1824 31.6757 39.1704 31.6713C39.1645 31.6669 39.1585 31.6646 39.1525 31.658C39.1405 31.6514 39.1266 31.6381 39.1146 31.6227C39.1027 31.6094 39.0907 31.5918 39.0788 31.5741C39.0688 31.5586 39.0569 31.5387 39.0469 31.5211C39.033 31.4946 39.021 31.4681 39.0071 31.4393H38.1962C38.1842 31.4636 38.1723 31.4835 38.1623 31.5012L38.1583 31.5056C38.1484 31.5211 38.1384 31.5365 38.1284 31.5476C38.1045 31.5763 38.0826 31.5918 38.0607 31.5895C38.0189 31.5851 37.977 31.5807 37.9372 31.5697C37.9212 31.5674 37.9073 31.563 37.8914 31.5586C37.8774 31.5542 37.8615 31.5498 37.8475 31.5454C37.8156 31.5343 37.7838 31.5211 37.7539 31.5078C37.7459 31.5034 37.7379 31.5012 37.73 31.4968C37.6961 31.4791 37.6622 31.4614 37.6284 31.4393H35.114C35.0164 31.5829 34.9267 31.7309 34.8411 31.8811H41.7605C41.356 31.8414 40.8978 31.806 40.4196 31.7707ZM44.8367 31.7155C44.8367 31.6646 44.8347 31.6161 44.8327 31.5653C44.8327 31.5233 44.8307 31.4813 44.8287 31.4393H42.6112C42.5594 31.499 42.5076 31.5542 42.4538 31.6028C42.4299 31.6271 42.404 31.6492 42.3801 31.6691C42.3622 31.6867 42.3442 31.7 42.3263 31.7133C42.2765 31.7508 42.2287 31.7839 42.1789 31.8105C42.1609 31.8215 42.143 31.8303 42.1251 31.837C42.0812 31.859 42.0374 31.8723 41.9936 31.8811H44.8387C44.8387 31.8259 44.8387 31.7707 44.8367 31.7155ZM40.4196 31.7707C40.3499 31.7663 40.2822 31.7596 40.2124 31.7552C39.9913 31.7376 39.7661 31.7221 39.541 31.7044C39.4274 31.6956 39.3159 31.689 39.2043 31.6801C39.1923 31.6801 39.1824 31.6757 39.1704 31.6713C39.1645 31.6669 39.1585 31.6646 39.1525 31.658C39.1405 31.6514 39.1266 31.6381 39.1146 31.6227C39.1027 31.6094 39.0907 31.5918 39.0788 31.5741C39.0688 31.5586 39.0569 31.5387 39.0469 31.5211C39.033 31.4946 39.021 31.4681 39.0071 31.4393H38.1962C38.1842 31.4636 38.1723 31.4835 38.1623 31.5012L38.1583 31.5056C38.1484 31.5211 38.1384 31.5365 38.1284 31.5476C38.1045 31.5763 38.0826 31.5918 38.0607 31.5895C38.0189 31.5851 37.977 31.5807 37.9372 31.5697C37.9212 31.5674 37.9073 31.563 37.8914 31.5586C37.8774 31.5542 37.8615 31.5498 37.8475 31.5454C37.8156 31.5343 37.7838 31.5211 37.7539 31.5078C37.7459 31.5034 37.7379 31.5012 37.73 31.4968C37.6961 31.4791 37.6622 31.4614 37.6284 31.4393H35.114C35.0164 31.5829 34.9267 31.7309 34.8411 31.8811H41.7605C41.356 31.8414 40.8978 31.806 40.4196 31.7707ZM44.8367 31.7155C44.8367 31.6646 44.8347 31.6161 44.8327 31.5653C44.8327 31.5233 44.8307 31.4813 44.8287 31.4393H42.6112C42.5594 31.499 42.5076 31.5542 42.4538 31.6028C42.4299 31.6271 42.404 31.6492 42.3801 31.6691C42.3622 31.6867 42.3442 31.7 42.3263 31.7133C42.2765 31.7508 42.2287 31.7839 42.1789 31.8105C42.1609 31.8215 42.143 31.8303 42.1251 31.837C42.0812 31.859 42.0374 31.8723 41.9936 31.8811H44.8387C44.8387 31.8259 44.8387 31.7707 44.8367 31.7155Z" fill="#3F3D56"/>
<path d="M53.1925 31.9172C51.6027 32.5637 50.8072 25.9235 50.4103 25.7751C50.0415 25.6372 49.5857 32.3733 49.218 32.2405C40.319 29.0254 36.6175 21.2167 28.9429 23.4205C26.7984 15.8942 27.4142 7.72439 29.7378 5.31751C33.3603 -0.0228171 40.3729 0.161268 45.2028 1.08153C48.9797 1.80116 51.5231 5.88622 50.6256 10.0171C50.5651 10.2954 50.3238 10.5578 50.4022 10.8131C50.737 11.9037 53.4832 26.8449 53.1925 31.9172Z" fill="#2F2E41"/>
<path d="M40.8664 20.5436C45.4761 20.5436 49.2129 16.4003 49.2129 11.2894C49.2129 6.17841 45.4761 2.03516 40.8664 2.03516C36.2568 2.03516 32.52 6.17841 32.52 11.2894C32.52 16.4003 36.2568 20.5436 40.8664 20.5436Z" fill="#FFB6B6"/>
<path d="M48.4619 64.6113H25.0967C27.0551 59.7659 28.2591 55.1513 26.3769 51.4807L48.4619 50.0612C47.3582 55.0163 47.2233 59.8792 48.4619 64.6113Z" fill="#FFB6B6"/>
<path d="M56.9183 105H39.1286L38.9354 104.558L36.0983 98.1012L35.8173 104.558L35.7974 105H18.2727C18.2648 104.852 18.2548 104.704 18.2468 104.558C17.167 86.0797 21.0501 73.5545 23.3273 67.9502L23.3293 67.948C24.2239 65.7434 24.8734 64.6101 24.8734 64.6101L25.0985 64.6079H25.1005L29.649 64.5196H29.651L33.6796 64.4444L36.7239 64.3892L37.9452 64.3649H37.9472L38.7122 64.3517L42.5156 64.2788L45.9126 64.2147L48.3512 64.1705H48.4189L48.7815 65.9046V65.9068L48.7955 65.9842V65.9864L48.8572 66.2713L48.8592 66.2802L48.9828 66.8788V66.8832L48.9907 66.9164V66.9186L49.0206 67.0622L49.0226 67.0688L49.3095 68.445L49.7737 70.6827L50.3854 73.6097L51.1564 77.3253L51.5469 79.1964L52.0829 81.7743L56.8246 104.558L56.9183 105Z" fill="#2F2E41"/>
<path d="M45.0886 21.4611L35.7901 21.1013L32.1146 26.5661L30.1806 27.0318C27.2815 27.7298 25.2927 30.6944 25.5237 33.9737L25.3659 58.4419L24.8391 62.2198L49.0936 53.9781L53.6444 28.9371L47.1601 26.3542L45.0886 21.4611Z" fill="#7D78D2"/>
<path d="M46.9673 81.1166C47.2339 80.0757 47.6904 79.1878 48.234 78.5544L50.2089 68.46L54.5135 69.6424L52.0468 79.7549C52.209 80.6105 52.1765 81.6319 51.9099 82.6729C51.3008 85.051 49.7006 86.6304 48.3358 86.2006C46.9709 85.7709 46.3582 83.4947 46.9673 81.1166Z" fill="#FFB6B6"/>
<path d="M47.5628 26.6068C47.5628 26.6068 55.5106 26.158 56.0894 32.0017C56.6682 37.8454 58.5197 51.7372 58.5197 51.7372L54.228 74.2017L48.108 73.2588L50.8125 44.6641L47.5628 26.6068Z" fill="#7D78D2"/>
<path d="M52.7626 21.0711C52.1302 24.3663 50.2313 26.4625 47.2608 27.1712C44.5943 27.8075 42.4678 24.4393 41.759 21.0711C41.0685 17.7902 44.2825 15.6387 47.2608 14.9709C50.2648 14.2972 53.1001 19.3121 52.7626 21.0711Z" fill="#3F3D56"/>
<path d="M43.6154 19.5367C43.8018 19.5367 43.953 19.3691 43.953 19.1625C43.953 18.9558 43.8018 18.7882 43.6154 18.7882C43.429 18.7882 43.2779 18.9558 43.2779 19.1625C43.2779 19.3691 43.429 19.5367 43.6154 19.5367Z" fill="white"/>
<path d="M51.4125 19.5367C51.5989 19.5367 51.75 19.3691 51.75 19.1625C51.75 18.9558 51.5989 18.7882 51.4125 18.7882C51.2261 18.7882 51.075 18.9558 51.075 19.1625C51.075 19.3691 51.2261 19.5367 51.4125 19.5367Z" fill="white"/>
<path d="M46.5182 20.2103C46.7046 20.2103 46.8557 20.0427 46.8557 19.836C46.8557 19.6293 46.7046 19.4618 46.5182 19.4618C46.3318 19.4618 46.1807 19.6293 46.1807 19.836C46.1807 20.0427 46.3318 20.2103 46.5182 20.2103Z" fill="white"/>
<path d="M49.0159 18.0771C49.2024 18.0771 49.3535 17.9095 49.3535 17.7029C49.3535 17.4962 49.2024 17.3286 49.0159 17.3286C48.8295 17.3286 48.6784 17.4962 48.6784 17.7029C48.6784 17.9095 48.8295 18.0771 49.0159 18.0771Z" fill="white"/>
<path d="M46.0794 16.655C46.417 16.7673 45.9283 17.0293 45.7419 17.0293C45.5555 17.0293 45.4044 16.8617 45.4044 16.655C45.4044 16.4483 45.5555 16.2808 45.7419 16.2808C45.9283 16.2808 45.7419 16.5427 46.0794 16.655Z" fill="white"/>
<path d="M48.2059 21.6324C48.5434 21.7447 48.0548 22.0067 47.8684 22.0067C47.6819 22.0067 47.5308 21.8391 47.5308 21.6324C47.5308 21.4257 47.6819 21.2582 47.8684 21.2582C48.0548 21.2582 47.8684 21.5201 48.2059 21.6324Z" fill="white"/>
<path d="M48.0709 16.5802C48.4084 16.6925 47.9198 16.9544 47.7333 16.9544C47.5469 16.9544 47.3958 16.7869 47.3958 16.5802C47.3958 16.3735 47.5469 16.2059 47.7333 16.2059C47.9198 16.2059 47.7333 16.4679 48.0709 16.5802Z" fill="white"/>
<path d="M48.7122 24.7386C49.0497 24.8509 48.5611 25.1129 48.3746 25.1129C48.1882 25.1129 48.0371 24.9453 48.0371 24.7386C48.0371 24.5319 48.1882 24.3644 48.3746 24.3644C48.5611 24.3644 48.3746 24.6264 48.7122 24.7386Z" fill="white"/>
<path d="M44.5605 23.6908C44.898 23.803 44.4094 24.065 44.223 24.065C44.0366 24.065 43.8854 23.8975 43.8854 23.6908C43.8854 23.4841 44.0366 23.3165 44.223 23.3165C44.4094 23.3165 44.223 23.5785 44.5605 23.6908Z" fill="#6C63FF"/>
<path d="M50.6024 21.5576C50.9399 21.6699 50.4513 21.9318 50.2648 21.9318C50.0784 21.9318 49.9273 21.7643 49.9273 21.5576C49.9273 21.3509 50.0784 21.1833 50.2648 21.1833C50.4513 21.1833 50.2648 21.4453 50.6024 21.5576Z" fill="white"/>
<path d="M44.1555 21.5576C44.493 21.6699 44.0044 21.9318 43.8179 21.9318C43.6315 21.9318 43.4804 21.7643 43.4804 21.5576C43.4804 21.3509 43.6315 21.1833 43.8179 21.1833C44.0044 21.1833 43.8179 21.4453 44.1555 21.5576Z" fill="#6C63FF"/>
<path d="M46.4507 26.0486C46.7882 26.1608 46.2996 26.4228 46.1132 26.4228C45.9268 26.4228 45.7756 26.2553 45.7756 26.0486C45.7756 25.8419 45.9268 25.6743 46.1132 25.6743C46.2996 25.6743 46.1132 25.9363 46.4507 26.0486Z" fill="white"/>
<path d="M44.4597 26.9944C43.8388 27.8294 43.0994 28.4397 42.3723 28.7781L36.9113 37.1464L33.3959 34.1487L39.3141 25.9826C39.475 25.1267 39.8743 24.2055 40.4951 23.3706C41.9134 21.4631 43.9506 20.728 45.0454 21.7287C46.1402 22.7294 45.8779 25.087 44.4597 26.9944Z" fill="#FFB6B6"/>
<path d="M36.1052 32.8871C37.0087 27.9418 34.0684 20.7839 34.0038 17.0806C33.9464 13.7857 34.6577 14.0395 36.9923 11.9999L38.1877 8.68631C39.0858 8.30863 39.9527 9.50221 40.3928 10.2716C40.6175 10.6644 41.1253 10.6699 41.3604 10.2846C41.4744 10.0976 41.5846 9.96137 41.6613 9.96735C41.9819 9.99238 42.2133 11.3953 42.541 11.4197C43.9187 11.5221 47.0402 11.4485 48.1495 11.558C49.3583 11.6774 49.0838 8.38768 49.2129 8.64532C50.2207 10.6567 49.6781 8.0236 48.3757 6.92001L50.3136 7.13999C51.4706 11.2325 52.5886 15.296 51.5364 17.7433L49.6073 11.7301C49.6073 5.64557 46.8282 -1.49026 38.8792 0.272454C33.4692 -0.327403 28.5613 3.7898 27.5949 9.72201C27.1248 12.6073 26.3942 15.5156 25.8986 18.0494C25.457 20.3071 26.0771 23.3732 28.148 23.6283L29.5554 27.2422C29.5554 29.3619 32.1328 31.1316 33.9693 30.8357C34.9128 30.6837 36.0092 32.5323 36.1301 32.9856L36.1052 32.8871Z" fill="#2F2E41"/>
<path d="M58.6775 58.268C58.5102 57.486 58.1495 56.8034 57.6535 56.2799L57.6515 56.2777C56.984 55.5642 56.0695 55.1378 55.0734 55.1378H38.3656C35.7237 55.1378 33.566 57.4065 33.4544 60.307C33.4245 61.0227 33.4365 61.734 33.4803 62.4431C33.5182 63.1168 33.5899 63.784 33.6796 64.4445C33.6875 64.4997 33.6935 64.5549 33.7035 64.6101V64.6123C34.1258 67.5327 34.9965 70.3271 35.8672 72.8167C37.5148 77.5285 41.6828 80.6963 46.2433 80.6963C46.5322 80.6963 46.8171 80.683 47.1 80.6587H47.102C48.6839 80.5262 50.1941 80.0159 51.5469 79.1964C51.8079 79.0417 52.059 78.876 52.304 78.6949C52.304 78.6949 52.306 78.6949 52.306 78.6927C54.119 77.385 55.5874 75.4918 56.4839 73.1856C58.1954 68.7808 59.7972 63.5608 58.6775 58.268Z" fill="white"/>
<path d="M48.3906 71.3084C47.7583 74.6037 45.8594 76.6998 42.8888 77.4086C40.2223 78.0448 38.0958 74.6766 37.387 71.3084C36.6966 68.0275 39.9106 65.876 42.8888 65.2082C45.8929 64.5346 48.7282 69.5494 48.3906 71.3084Z" fill="#3F3D56"/>
<path d="M39.2435 69.774C39.4299 69.774 39.581 69.6064 39.581 69.3998C39.581 69.1931 39.4299 69.0255 39.2435 69.0255C39.0571 69.0255 38.9059 69.1931 38.9059 69.3998C38.9059 69.6064 39.0571 69.774 39.2435 69.774Z" fill="#6C63FF"/>
<path d="M47.0405 69.774C47.2269 69.774 47.378 69.6064 47.378 69.3998C47.378 69.1931 47.2269 69.0255 47.0405 69.0255C46.8541 69.0255 46.7029 69.1931 46.7029 69.3998C46.7029 69.6064 46.8541 69.774 47.0405 69.774Z" fill="#6C63FF"/>
<path d="M42.1463 70.4476C42.3327 70.4476 42.4838 70.28 42.4838 70.0733C42.4838 69.8667 42.3327 69.6991 42.1463 69.6991C41.9598 69.6991 41.8087 69.8667 41.8087 70.0733C41.8087 70.28 41.9598 70.4476 42.1463 70.4476Z" fill="#6C63FF"/>
<path d="M44.644 68.3144C44.8304 68.3144 44.9815 68.1469 44.9815 67.9402C44.9815 67.7335 44.8304 67.5659 44.644 67.5659C44.4576 67.5659 44.3065 67.7335 44.3065 67.9402C44.3065 68.1469 44.4576 68.3144 44.644 68.3144Z" fill="#6C63FF"/>
<path d="M41.7075 66.8923C42.045 67.0046 41.5564 67.2666 41.3699 67.2666C41.1835 67.2666 41.0324 67.099 41.0324 66.8923C41.0324 66.6856 41.1835 66.5181 41.3699 66.5181C41.5564 66.5181 41.3699 66.78 41.7075 66.8923Z" fill="#6C63FF"/>
<path d="M43.8339 71.8697C44.1715 71.982 43.6828 72.244 43.4964 72.244C43.31 72.244 43.1589 72.0764 43.1589 71.8697C43.1589 71.663 43.31 71.4955 43.4964 71.4955C43.6828 71.4955 43.4964 71.7575 43.8339 71.8697Z" fill="#6C63FF"/>
<path d="M43.6989 66.8175C44.0365 66.9298 43.5478 67.1917 43.3614 67.1917C43.175 67.1917 43.0239 67.0242 43.0239 66.8175C43.0239 66.6108 43.175 66.4432 43.3614 66.4432C43.5478 66.4432 43.3614 66.7052 43.6989 66.8175Z" fill="#6C63FF"/>
<path d="M44.3402 74.9759C44.6778 75.0882 44.1891 75.3502 44.0027 75.3502C43.8163 75.3502 43.6652 75.1826 43.6652 74.9759C43.6652 74.7692 43.8163 74.6017 44.0027 74.6017C44.1891 74.6017 44.0027 74.8637 44.3402 74.9759Z" fill="#6C63FF"/>
<path d="M40.1886 73.9281C40.5261 74.0404 40.0374 74.3023 39.851 74.3023C39.6646 74.3023 39.5135 74.1348 39.5135 73.9281C39.5135 73.7214 39.6646 73.5538 39.851 73.5538C40.0374 73.5538 39.851 73.8158 40.1886 73.9281Z" fill="#6C63FF"/>
<path d="M46.2304 71.7949C46.568 71.9072 46.0793 72.1691 45.8929 72.1691C45.7065 72.1691 45.5554 72.0016 45.5554 71.7949C45.5554 71.5882 45.7065 71.4207 45.8929 71.4207C46.0793 71.4207 45.8929 71.6826 46.2304 71.7949Z" fill="#6C63FF"/>
<path d="M39.7835 71.7949C40.1211 71.9072 39.6324 72.1691 39.446 72.1691C39.2596 72.1691 39.1085 72.0016 39.1085 71.7949C39.1085 71.5882 39.2596 71.4207 39.446 71.4207C39.6324 71.4207 39.446 71.6826 39.7835 71.7949Z" fill="#6C63FF"/>
<path d="M42.0788 76.2859C42.4163 76.3981 41.9276 76.6601 41.7412 76.6601C41.5548 76.6601 41.4037 76.4926 41.4037 76.2859C41.4037 76.0792 41.5548 75.9116 41.7412 75.9116C41.9276 75.9116 41.7412 76.1736 42.0788 76.2859Z" fill="#6C63FF"/>
<path d="M53.16 62.9356C52.5277 66.2308 50.6288 68.327 47.6582 69.0357C44.9917 69.672 42.8652 66.3038 42.1564 62.9356C41.466 59.6547 44.68 57.5032 47.6582 56.8354C50.6623 56.1618 53.4976 61.1766 53.16 62.9356Z" fill="#3F3D56"/>
<path d="M44.0129 61.4012C44.1993 61.4012 44.3504 61.2336 44.3504 61.027C44.3504 60.8203 44.1993 60.6527 44.0129 60.6527C43.8265 60.6527 43.6754 60.8203 43.6754 61.027C43.6754 61.2336 43.8265 61.4012 44.0129 61.4012Z" fill="#6C63FF"/>
<path d="M51.8099 61.4012C51.9963 61.4012 52.1474 61.2336 52.1474 61.027C52.1474 60.8203 51.9963 60.6527 51.8099 60.6527C51.6235 60.6527 51.4724 60.8203 51.4724 61.027C51.4724 61.2336 51.6235 61.4012 51.8099 61.4012Z" fill="#6C63FF"/>
<path d="M46.9157 62.0748C47.1021 62.0748 47.2532 61.9072 47.2532 61.7005C47.2532 61.4938 47.1021 61.3263 46.9157 61.3263C46.7292 61.3263 46.5781 61.4938 46.5781 61.7005C46.5781 61.9072 46.7292 62.0748 46.9157 62.0748Z" fill="#6C63FF"/>
<path d="M49.4134 59.9416C49.5998 59.9416 49.7509 59.7741 49.7509 59.5674C49.7509 59.3607 49.5998 59.1931 49.4134 59.1931C49.227 59.1931 49.0759 59.3607 49.0759 59.5674C49.0759 59.7741 49.227 59.9416 49.4134 59.9416Z" fill="#6C63FF"/>
<path d="M46.4769 58.5195C46.8144 58.6318 46.3258 58.8938 46.1394 58.8938C45.9529 58.8938 45.8018 58.7262 45.8018 58.5195C45.8018 58.3128 45.9529 58.1453 46.1394 58.1453C46.3258 58.1453 46.1394 58.4072 46.4769 58.5195Z" fill="#6C63FF"/>
<path d="M48.6034 63.4969C48.9409 63.6092 48.4522 63.8712 48.2658 63.8712C48.0794 63.8712 47.9283 63.7036 47.9283 63.4969C47.9283 63.2902 48.0794 63.1227 48.2658 63.1227C48.4522 63.1227 48.2658 63.3847 48.6034 63.4969Z" fill="#6C63FF"/>
<path d="M48.4683 58.4447C48.8059 58.557 48.3172 58.8189 48.1308 58.8189C47.9444 58.8189 47.7933 58.6514 47.7933 58.4447C47.7933 58.238 47.9444 58.0704 48.1308 58.0704C48.3172 58.0704 48.1308 58.3324 48.4683 58.4447Z" fill="#6C63FF"/>
<path d="M49.1096 66.6031C49.4472 66.7154 48.9585 66.9774 48.7721 66.9774C48.5857 66.9774 48.4346 66.8098 48.4346 66.6031C48.4346 66.3964 48.5857 66.2289 48.7721 66.2289C48.9585 66.2289 48.7721 66.4909 49.1096 66.6031Z" fill="#6C63FF"/>
<path d="M44.958 65.5553C45.2955 65.6676 44.8069 65.9295 44.6204 65.9295C44.434 65.9295 44.2829 65.762 44.2829 65.5553C44.2829 65.3486 44.434 65.181 44.6204 65.181C44.8069 65.181 44.6204 65.443 44.958 65.5553Z" fill="#6C63FF"/>
<path d="M50.9998 63.4221C51.3374 63.5344 50.8487 63.7963 50.6623 63.7963C50.4759 63.7963 50.3248 63.6288 50.3248 63.4221C50.3248 63.2154 50.4759 63.0479 50.6623 63.0479C50.8487 63.0479 50.6623 63.3098 50.9998 63.4221Z" fill="#6C63FF"/>
<path d="M44.5529 63.4221C44.8905 63.5344 44.4018 63.7963 44.2154 63.7963C44.029 63.7963 43.8779 63.6288 43.8779 63.4221C43.8779 63.2154 44.029 63.0479 44.2154 63.0479C44.4018 63.0479 44.2154 63.3098 44.5529 63.4221Z" fill="#6C63FF"/>
<path d="M46.8482 67.9131C47.1857 68.0253 46.697 68.2873 46.5106 68.2873C46.3242 68.2873 46.1731 68.1198 46.1731 67.9131C46.1731 67.7064 46.3242 67.5388 46.5106 67.5388C46.697 67.5388 46.5106 67.8008 46.8482 67.9131Z" fill="#6C63FF"/>
<path d="M46.8008 61.6135C46.1684 64.9088 44.2696 67.005 41.299 67.7137C38.6325 68.3499 36.506 64.9817 35.7972 61.6135C35.1067 58.3326 38.3207 56.1812 41.299 55.5134C44.303 54.8397 47.1383 59.8546 46.8008 61.6135Z" fill="#3F3D56"/>
<path d="M37.6536 60.0792C37.8401 60.0792 37.9912 59.9116 37.9912 59.7049C37.9912 59.4982 37.8401 59.3307 37.6536 59.3307C37.4672 59.3307 37.3161 59.4982 37.3161 59.7049C37.3161 59.9116 37.4672 60.0792 37.6536 60.0792Z" fill="#6C63FF"/>
<path d="M45.4506 60.0792C45.637 60.0792 45.7882 59.9116 45.7882 59.7049C45.7882 59.4982 45.637 59.3307 45.4506 59.3307C45.2642 59.3307 45.1131 59.4982 45.1131 59.7049C45.1131 59.9116 45.2642 60.0792 45.4506 60.0792Z" fill="#6C63FF"/>
<path d="M40.5564 60.7528C40.7428 60.7528 40.8939 60.5852 40.8939 60.3785C40.8939 60.1718 40.7428 60.0043 40.5564 60.0043C40.37 60.0043 40.2189 60.1718 40.2189 60.3785C40.2189 60.5852 40.37 60.7528 40.5564 60.7528Z" fill="#6C63FF"/>
<path d="M43.0542 58.6196C43.2406 58.6196 43.3917 58.452 43.3917 58.2453C43.3917 58.0386 43.2406 57.8711 43.0542 57.8711C42.8677 57.8711 42.7166 58.0386 42.7166 58.2453C42.7166 58.452 42.8677 58.6196 43.0542 58.6196Z" fill="#6C63FF"/>
<path d="M40.1176 57.1975C40.4552 57.3098 39.9665 57.5717 39.7801 57.5717C39.5937 57.5717 39.4426 57.4042 39.4426 57.1975C39.4426 56.9908 39.5937 56.8232 39.7801 56.8232C39.9665 56.8232 39.7801 57.0852 40.1176 57.1975Z" fill="#6C63FF"/>
<path d="M42.2441 62.1749C42.5816 62.2872 42.093 62.5492 41.9066 62.5492C41.7201 62.5492 41.569 62.3816 41.569 62.1749C41.569 61.9682 41.7201 61.8007 41.9066 61.8007C42.093 61.8007 41.9066 62.0626 42.2441 62.1749Z" fill="#6C63FF"/>
<path d="M42.1091 57.1227C42.4466 57.2349 41.958 57.4969 41.7716 57.4969C41.5851 57.4969 41.434 57.3293 41.434 57.1227C41.434 56.916 41.5851 56.7484 41.7716 56.7484C41.958 56.7484 41.7716 57.0104 42.1091 57.1227Z" fill="#6C63FF"/>
<path d="M42.7504 65.2811C43.0879 65.3934 42.5993 65.6553 42.4129 65.6553C42.2264 65.6553 42.0753 65.4878 42.0753 65.2811C42.0753 65.0744 42.2264 64.9069 42.4129 64.9069C42.5993 64.9069 42.4129 65.1688 42.7504 65.2811Z" fill="#6C63FF"/>
<path d="M38.5987 64.2333C38.9363 64.3455 38.4476 64.6075 38.2612 64.6075C38.0748 64.6075 37.9236 64.4399 37.9236 64.2333C37.9236 64.0266 38.0748 63.859 38.2612 63.859C38.4476 63.859 38.2612 64.121 38.5987 64.2333Z" fill="#6C63FF"/>
<path d="M44.6406 62.1001C44.9781 62.2123 44.4895 62.4743 44.303 62.4743C44.1166 62.4743 43.9655 62.3068 43.9655 62.1001C43.9655 61.8934 44.1166 61.7258 44.303 61.7258C44.4895 61.7258 44.3031 61.9878 44.6406 62.1001Z" fill="#6C63FF"/>
<path d="M38.1937 62.1001C38.5312 62.2123 38.0426 62.4743 37.8561 62.4743C37.6697 62.4743 37.5186 62.3068 37.5186 62.1001C37.5186 61.8934 37.6697 61.7258 37.8561 61.7258C38.0426 61.7258 37.8562 61.9878 38.1937 62.1001Z" fill="#6C63FF"/>
<path d="M40.4889 66.591C40.8264 66.7033 40.3378 66.9653 40.1514 66.9653C39.965 66.9653 39.8138 66.7977 39.8138 66.591C39.8138 66.3844 39.965 66.2168 40.1514 66.2168C40.3378 66.2168 40.1514 66.4788 40.4889 66.591Z" fill="#6C63FF"/>
<path d="M51.5702 53.2406C50.9379 56.5359 49.039 58.632 46.0684 59.3408C43.4019 59.977 41.2754 56.6088 40.5666 53.2406C39.8761 49.9597 43.0901 47.8083 46.0684 47.1404C49.0724 46.4668 51.9077 51.4817 51.5702 53.2406Z" fill="#3F3D56"/>
<path d="M42.423 51.7063C42.6095 51.7063 42.7606 51.5387 42.7606 51.332C42.7606 51.1253 42.6095 50.9578 42.423 50.9578C42.2366 50.9578 42.0855 51.1253 42.0855 51.332C42.0855 51.5387 42.2366 51.7063 42.423 51.7063Z" fill="white"/>
<path d="M50.22 51.7063C50.4065 51.7063 50.5576 51.5387 50.5576 51.332C50.5576 51.1253 50.4065 50.9578 50.22 50.9578C50.0336 50.9578 49.8825 51.1253 49.8825 51.332C49.8825 51.5387 50.0336 51.7063 50.22 51.7063Z" fill="white"/>
<path d="M45.3258 52.3798C45.5122 52.3798 45.6634 52.2123 45.6634 52.0056C45.6634 51.7989 45.5122 51.6313 45.3258 51.6313C45.1394 51.6313 44.9883 51.7989 44.9883 52.0056C44.9883 52.2123 45.1394 52.3798 45.3258 52.3798Z" fill="white"/>
<path d="M47.8236 50.2467C48.01 50.2467 48.1611 50.0791 48.1611 49.8724C48.1611 49.6657 48.01 49.4982 47.8236 49.4982C47.6371 49.4982 47.486 49.6657 47.486 49.8724C47.486 50.0791 47.6371 50.2467 47.8236 50.2467Z" fill="white"/>
<path d="M44.887 48.8246C45.2246 48.9368 44.7359 49.1988 44.5495 49.1988C44.3631 49.1988 44.212 49.0313 44.212 48.8246C44.212 48.6179 44.3631 48.4503 44.5495 48.4503C44.7359 48.4503 44.5495 48.7123 44.887 48.8246Z" fill="white"/>
<path d="M47.0135 53.802C47.351 53.9143 46.8624 54.1762 46.676 54.1762C46.4896 54.1762 46.3384 54.0087 46.3384 53.802C46.3384 53.5953 46.4896 53.4277 46.676 53.4277C46.8624 53.4277 46.676 53.6897 47.0135 53.802Z" fill="white"/>
<path d="M46.8785 48.7497C47.216 48.862 46.7274 49.124 46.541 49.124C46.3545 49.124 46.2034 48.9564 46.2034 48.7497C46.2034 48.543 46.3545 48.3755 46.541 48.3755C46.7274 48.3755 46.541 48.6375 46.8785 48.7497Z" fill="white"/>
<path d="M47.5198 56.9082C47.8573 57.0205 47.3687 57.2824 47.1823 57.2824C46.9958 57.2824 46.8447 57.1149 46.8447 56.9082C46.8447 56.7015 46.9958 56.5339 47.1823 56.5339C47.3687 56.5339 47.1823 56.7959 47.5198 56.9082Z" fill="#6C63FF"/>
<path d="M43.3681 55.8603C43.7057 55.9726 43.217 56.2346 43.0306 56.2346C42.8442 56.2346 42.6931 56.067 42.6931 55.8603C42.6931 55.6536 42.8442 55.4861 43.0306 55.4861C43.217 55.4861 43.0306 55.7481 43.3681 55.8603Z" fill="#6C63FF"/>
<path d="M49.41 53.7272C49.7475 53.8394 49.2589 54.1014 49.0725 54.1014C48.886 54.1014 48.7349 53.9338 48.7349 53.7272C48.7349 53.5205 48.886 53.3529 49.0725 53.3529C49.2589 53.3529 49.0725 53.6149 49.41 53.7272Z" fill="white"/>
<path d="M42.9631 53.7272C43.3006 53.8394 42.812 54.1014 42.6256 54.1014C42.4391 54.1014 42.288 53.9338 42.288 53.7272C42.288 53.5205 42.4391 53.3529 42.6256 53.3529C42.812 53.3529 42.6256 53.6149 42.9631 53.7272Z" fill="white"/>
<path d="M45.2583 58.2181C45.5959 58.3304 45.1072 58.5924 44.9208 58.5924C44.7344 58.5924 44.5833 58.4248 44.5833 58.2181C44.5833 58.0114 44.7344 57.8439 44.9208 57.8439C45.1072 57.8439 44.9208 58.1058 45.2583 58.2181Z" fill="#6C63FF"/>
<path d="M56.3396 71.3084C55.7073 74.6037 53.8084 76.6998 50.8378 77.4086C48.1713 78.0448 46.0448 74.6766 45.336 71.3084C44.6455 68.0275 47.8595 65.876 50.8378 65.2082C53.8419 64.5346 56.6771 69.5494 56.3396 71.3084Z" fill="#3F3D56"/>
<path d="M47.1925 69.774C47.3789 69.774 47.53 69.6064 47.53 69.3998C47.53 69.1931 47.3789 69.0255 47.1925 69.0255C47.006 69.0255 46.8549 69.1931 46.8549 69.3998C46.8549 69.6064 47.006 69.774 47.1925 69.774Z" fill="#6C63FF"/>
<path d="M54.9895 69.774C55.1759 69.774 55.327 69.6064 55.327 69.3998C55.327 69.1931 55.1759 69.0255 54.9895 69.0255C54.8031 69.0255 54.652 69.1931 54.652 69.3998C54.652 69.6064 54.8031 69.774 54.9895 69.774Z" fill="#6C63FF"/>
<path d="M50.0952 70.4476C50.2816 70.4476 50.4328 70.28 50.4328 70.0733C50.4328 69.8667 50.2816 69.6991 50.0952 69.6991C49.9088 69.6991 49.7577 69.8667 49.7577 70.0733C49.7577 70.28 49.9088 70.4476 50.0952 70.4476Z" fill="#6C63FF"/>
<path d="M52.593 68.3144C52.7794 68.3144 52.9305 68.1469 52.9305 67.9402C52.9305 67.7335 52.7794 67.5659 52.593 67.5659C52.4066 67.5659 52.2554 67.7335 52.2554 67.9402C52.2554 68.1469 52.4066 68.3144 52.593 68.3144Z" fill="#6C63FF"/>
<path d="M49.6565 66.8923C49.994 67.0046 49.5053 67.2666 49.3189 67.2666C49.1325 67.2666 48.9814 67.099 48.9814 66.8923C48.9814 66.6856 49.1325 66.5181 49.3189 66.5181C49.5053 66.5181 49.3189 66.78 49.6565 66.8923Z" fill="#6C63FF"/>
<path d="M51.7829 71.8697C52.1205 71.982 51.6318 72.244 51.4454 72.244C51.259 72.244 51.1078 72.0764 51.1078 71.8697C51.1078 71.663 51.259 71.4955 51.4454 71.4955C51.6318 71.4955 51.4454 71.7575 51.7829 71.8697Z" fill="#6C63FF"/>
<path d="M51.6479 66.8175C51.9854 66.9298 51.4968 67.1917 51.3104 67.1917C51.124 67.1917 50.9728 67.0242 50.9728 66.8175C50.9728 66.6108 51.124 66.4432 51.3104 66.4432C51.4968 66.4432 51.3104 66.7052 51.6479 66.8175Z" fill="#6C63FF"/>
<path d="M52.2892 74.9759C52.6267 75.0882 52.1381 75.3502 51.9517 75.3502C51.7653 75.3502 51.6141 75.1826 51.6141 74.9759C51.6141 74.7692 51.7653 74.6017 51.9517 74.6017C52.1381 74.6017 51.9517 74.8637 52.2892 74.9759Z" fill="#6C63FF"/>
<path d="M48.1375 73.9281C48.4751 74.0404 47.9864 74.3023 47.8 74.3023C47.6136 74.3023 47.4625 74.1348 47.4625 73.9281C47.4625 73.7214 47.6136 73.5538 47.8 73.5538C47.9864 73.5538 47.8 73.8158 48.1375 73.9281Z" fill="#6C63FF"/>
<path d="M54.1794 71.7949C54.5169 71.9072 54.0283 72.1691 53.8419 72.1691C53.6555 72.1691 53.5043 72.0016 53.5043 71.7949C53.5043 71.5882 53.6555 71.4207 53.8419 71.4207C54.0283 71.4207 53.8419 71.6826 54.1794 71.7949Z" fill="#6C63FF"/>
<path d="M47.7325 71.7949C48.07 71.9072 47.5814 72.1691 47.395 72.1691C47.2086 72.1691 47.0574 72.0016 47.0574 71.7949C47.0574 71.5882 47.2086 71.4207 47.395 71.4207C47.5814 71.4207 47.395 71.6826 47.7325 71.7949Z" fill="#6C63FF"/>
<path d="M50.0277 76.2859C50.3653 76.3981 49.8766 76.6601 49.6902 76.6601C49.5038 76.6601 49.3527 76.4926 49.3527 76.2859C49.3527 76.0792 49.5038 75.9116 49.6902 75.9116C49.8766 75.9116 49.6902 76.1736 50.0277 76.2859Z" fill="#6C63FF"/>
<path opacity="0.7" d="M58.6775 58.268C58.5102 57.486 58.1496 56.8034 57.6535 56.2799L57.6515 56.2777C56.984 55.5642 56.0695 55.1378 55.0734 55.1378C48.8574 58.8021 43.3698 58.3393 38.3656 55.1378C35.7237 55.1378 33.566 57.4065 33.4544 60.307C33.4245 61.0227 33.4365 61.734 33.4803 62.4431C33.5182 63.1168 33.5899 63.784 33.6796 64.4445C33.6875 64.4997 33.6935 64.5549 33.7035 64.6101V64.6123C34.1258 67.5327 34.9965 70.3271 35.8672 72.8167C37.5148 77.5285 41.6828 80.6963 46.2433 80.6963C46.5322 80.6963 46.8171 80.683 47.1 80.6587H47.102C48.6839 80.5262 50.1941 80.0159 51.5469 79.1964C51.8079 79.0417 52.059 78.876 52.304 78.6949C52.304 78.6949 52.306 78.6949 52.306 78.6927C54.119 77.385 55.5874 75.4918 56.4839 73.1856C58.1954 68.7808 59.7972 63.5608 58.6775 58.268Z" fill="#E6E6E6"/>
<path d="M29.7378 28.0351C29.7378 28.0351 23.9544 24.5097 22.0767 28.0351C20.4746 31.043 19.0821 46.2413 18.7078 50.6384C18.6421 51.4102 18.8102 52.1819 19.1856 52.8359C20.2972 54.7728 22.7648 55.0099 24.1603 53.3138L42.0588 31.5605L36.4945 28.4758L26.9557 39.4927L29.7378 28.0351Z" fill="#7D78D2"/>
</g>
<defs>
<clipPath id="clip0_118_4063">
<rect width="70" height="105" fill="white"/>
</clipPath>
</defs>
</svg>
