<svg width="62" height="63" viewBox="0 0 62 63" fill="none" xmlns="http://www.w3.org/2000/svg">
<ellipse cx="29.965" cy="30.183" rx="29.965" ry="30.183" transform="matrix(0.999995 -0.00327972 0.00222932 0.999998 1.06995 1.18274)" fill="#001449"/>
<path d="M31.67 31.6606L30.4256 31.6647L30.4284 32.9189L30.4524 43.7045C30.4524 43.7048 30.4524 43.705 30.4524 43.7053C30.4522 43.7296 30.4425 43.7531 30.4253 43.7706C30.4087 43.7873 30.3866 43.7971 30.3636 43.7982C30.3405 43.7972 30.3188 43.7877 30.3026 43.7714C30.2857 43.7545 30.276 43.7314 30.2757 43.7071C30.2757 43.7069 30.2756 43.7067 30.2756 43.7064L30.2516 32.9208L30.2488 31.6653L29.0031 31.6694L18.301 31.7045C18.3007 31.7045 18.3005 31.7045 18.3002 31.7045C18.2761 31.7043 18.2532 31.6946 18.2363 31.6776C18.2201 31.6614 18.2105 31.6396 18.2095 31.6164C18.2104 31.5931 18.22 31.5708 18.2365 31.554C18.2538 31.5366 18.277 31.5267 18.3011 31.5263C18.3014 31.5263 18.3016 31.5263 18.3019 31.5263L29.004 31.4912L30.2484 31.4872L30.2457 30.233L30.2218 19.5205C30.2265 19.5047 30.2354 19.4903 30.2476 19.4788C30.2648 19.4626 30.2874 19.4537 30.3107 19.4536C30.3339 19.4535 30.3562 19.4623 30.3731 19.4779C30.385 19.489 30.3938 19.5031 30.3985 19.5187L30.4224 30.2311L30.4252 31.4866L31.671 31.4825L42.3767 31.4474L42.4248 31.4472L42.4728 31.4434C42.4855 31.4423 42.4982 31.444 42.5102 31.4481C42.5221 31.4522 42.533 31.4588 42.5423 31.4674C42.5516 31.476 42.559 31.4864 42.564 31.4981C42.5691 31.5097 42.5718 31.5223 42.5718 31.5352C42.5718 31.548 42.5692 31.5607 42.5641 31.5726C42.559 31.5845 42.5515 31.5952 42.5421 31.604C42.5327 31.6129 42.5215 31.6196 42.5094 31.6239C42.4973 31.6282 42.4846 31.6299 42.4719 31.629L42.4239 31.6254L42.3758 31.6255L31.67 31.6606Z" fill="#FF0000" stroke="#FCFCFC" stroke-width="2.5"/>
</svg>
