<svg width="20" height="20" viewBox="0 0 57 62" fill="none" xmlns="http://www.w3.org/2000/svg">
<ellipse cx="27.6317" cy="30.4704" rx="27.6317" ry="30.4704" transform="matrix(0.999995 -0.00330953 0.00224294 0.999998 0.986664 0.182861)" fill="#001449"/>
<path d="M29.2102 30.9161L28.0237 30.92L28.0266 32.2291L28.0511 43.1173C28.0511 43.1175 28.0511 43.1177 28.0511 43.118C28.0509 43.1312 28.0461 43.1441 28.0374 43.1537C28.0294 43.1625 28.019 43.1678 28.008 43.1688C27.9972 43.1679 27.9871 43.1627 27.9794 43.1544C27.9711 43.1453 27.9663 43.1329 27.9661 43.1197C27.9661 43.1195 27.9661 43.1193 27.9661 43.119L27.9417 32.2308L27.9387 30.9203L26.7509 30.9242L16.8823 30.9569C16.8821 30.9569 16.882 30.9569 16.8818 30.9569C16.8698 30.9568 16.8585 30.9515 16.8502 30.9424C16.8426 30.934 16.8379 30.9229 16.837 30.9109C16.8378 30.8988 16.8426 30.8873 16.8505 30.8784C16.8592 30.8688 16.8709 30.8634 16.8829 30.8632C16.8831 30.8632 16.8832 30.8631 16.8834 30.8631L26.752 30.8305L27.9385 30.8265L27.9356 29.5174L27.9113 18.7103C27.9139 18.7036 27.9177 18.6975 27.9227 18.6924C27.9314 18.6835 27.9428 18.6786 27.9544 18.6785C27.966 18.6785 27.9771 18.6833 27.9854 18.6917C27.9901 18.6965 27.9938 18.7023 27.9963 18.7087L28.0206 29.5157L28.0235 30.8263L29.2113 30.8223L39.0834 30.7896L39.1293 30.7895L39.175 30.7854C39.1813 30.7849 39.1877 30.7858 39.1936 30.788C39.1996 30.7903 39.205 30.7938 39.2095 30.7985C39.2141 30.8031 39.2178 30.8088 39.2203 30.8151C39.2228 30.8214 39.2242 30.8283 39.2242 30.8353L40.4064 30.8321L39.2242 30.8353C39.2242 30.8424 39.2229 30.8494 39.2203 30.8559C39.2177 30.8625 39.214 30.8684 39.2092 30.8733C39.2044 30.8781 39.1988 30.8819 39.1928 30.8842C39.1867 30.8866 39.1802 30.8875 39.1739 30.887L39.1282 30.8832L39.0823 30.8834L29.2102 30.9161Z" fill="#FF0000" stroke="#FCFCFC" stroke-width="2.5"/>
</svg>
