<svg width="40" height="40" viewBox="0 0 30 29" fill="none" xmlns="http://www.w3.org/2000/svg">
<path d="M5.3125 12.6875C4.275 12.6875 3.4375 13.4971 3.4375 14.5C3.4375 15.5029 4.275 16.3125 5.3125 16.3125C6.35 16.3125 7.1875 15.5029 7.1875 14.5C7.1875 13.4971 6.35 12.6875 5.3125 12.6875ZM5.3125 5.4375C4.275 5.4375 3.4375 6.24708 3.4375 7.25C3.4375 8.25292 4.275 9.0625 5.3125 9.0625C6.35 9.0625 7.1875 8.25292 7.1875 7.25C7.1875 6.24708 6.35 5.4375 5.3125 5.4375ZM5.3125 19.9375C4.275 19.9375 3.4375 20.7592 3.4375 21.75C3.4375 22.7408 4.2875 23.5625 5.3125 23.5625C6.3375 23.5625 7.1875 22.7408 7.1875 21.75C7.1875 20.7592 6.35 19.9375 5.3125 19.9375ZM9.0625 22.9583H26.5625V20.5417H9.0625V22.9583ZM9.0625 15.7083H26.5625V13.2917H9.0625V15.7083ZM9.0625 6.04167V8.45833H26.5625V6.04167H9.0625Z" fill="#8F8F8F"/>
</svg>
