<svg xmlns="http://www.w3.org/2000/svg" width="127" height="102" viewBox="0 0 785.40964 244.82295" xmlns:xlink="http://www.w3.org/1999/xlink"><path d="m0,222.22456c0,.66003.56896,1.19,1.27747,1.19h782.85477c.70845,0,1.27741-.52997,1.27741-1.19,0-.65997-.56896-1.19-1.27741-1.19H1.27747c-.70851,0-1.27747.53003-1.27747,1.19Z" fill="#484565"/><g><g><path id="uuid-95027a71-20d4-4678-9a7e-77b0547e6c6d-54" d="m341.54449,223.14751c-8.28654,1.68059-15.85501-1.39744-16.90446-6.87434-1.04944-5.47687,4.8171-11.2775,13.10683-12.95754,3.30233-.71827,6.72539-.60475,9.98276.33109l129.84206-20.84845,4.90706,26.07647-131.81772,10.06902c-2.66902,2.13797-5.79509,3.57942-9.11654,4.20374,0,0-.00002,0,0,0Z" fill="#faafb2"/><path d="m550.12638,168.01901v17.79508c-1.90658,12.58342-8.62338,16.00336-21.02484,18.86364-18.91748,4.36313-44.1077,9.94776-44.47802,8.8368-.59397-1.78192-14.84933-32.07456-11.58248-47.51786l77.08534,2.02235Z" fill="#6c63ff"/></g><g><polygon points="549.26705 206.84165 539.32587 176.60389 582.85076 176.60389 582.85076 204.0372 549.26705 206.84165" fill="#faafb2"/><circle cx="600.93369" cy="180.34722" r="30.13167" fill="#faafb2"/><path d="m603.91792,188.61825c.15217-5.04718,5.25266-8.35698,9.90602-10.31743,4.65336-1.96045,10.00044-3.97914,11.92105-8.64908,1.57392-3.82697-9.04263-10.57381-6.21556-13.5955,2.94188-3.14441,18.08715-.0756,20.80614,3.26343,2.71899,3.33903,3.24839,7.91219,3.44609,12.21369.48266,10.5013-.36428,21.06302-2.5142,31.35321-1.32955,6.36367-3.32467,12.92002-7.93165,17.50694-5.83767,5.81225-14.65022,7.30254-22.8774,7.72-8.42096.4273-17.24164-.05572-24.61156-4.15199-7.36992-4.09627-12.80666-12.66815-10.9281-20.88802,4.46873-.82843,9.05139.01709,13.58533.33211,4.53394.31502,9.42974-.01689,13.03746-2.78098s5.03932-8.6799,1.83686-11.90482" fill="#36344e"/><path d="m593.47916,225.69016c2.20897,3.01482,4.05498,6.62197,3.60307,10.33202-.48826,4.00854-3.79098,7.39359-7.69543,8.42412-3.90445,1.03054-8.21105-.12412-11.39825-2.60374-3.1872-2.47962-5.30774-6.16493-6.35635-10.06457-.60693-2.25707-.86121-4.73119.05975-6.87935,1.35941-3.17089,5.41263-4.87684,8.63039-3.63243" fill="#36344e"/></g><g><polygon points="251.7132 199.82522 225.12734 199.82522 223.11149 128.75784 248.01582 128.75784 251.7132 199.82522" fill="#faafb2"/><path d="m199.23631,222.65658c-2.7955,0-5.28263-.06942-7.15673-.24112-7.06283-.64836-13.7993-5.8594-17.18614-8.90779-1.51831-1.36676-2.00706-3.55047-1.21614-5.43356v-.00062c.56809-1.35126,1.70178-2.35727,3.11069-2.76017l18.6592-5.33067,30.2128-20.38485.33658.60435c.12583.22562,3.09241,5.56931,4.08633,9.18239.3778,1.3742.27831,2.51905-.29536,3.40233-.39856.61365-.95022.97006-1.40054,1.17275.54732.5746,2.25965,1.73371,7.54042,2.5767,7.70003,1.22419,9.32743-6.76251,9.39282-7.10219l.05145-.26653.22841-.14814c3.66886-2.36223,5.92355-3.43394,6.70393-3.2077.48627.14566,1.29982.38864,3.4857,22.14087.22128.68059,1.75633,5.68832.71189,10.47414-1.13556,5.20794-23.88232,3.41597-28.43106,3.00377-.12924.01612-17.16351,1.22605-28.83427,1.22605Z" fill="#36344e"/></g><path d="m468.36698,106.76219l-32.15054,45.12053-5.76114,8.07893-17.95811-8.22892c-50.88899,6.73617-67.35435-35.9239-67.35435-35.9239l-42.74999-40.91221-24.6494-23.58409c5.2359,32.9307-29.72763,77.44532-29.72763,77.44532h-24.90433S224.61175,8.66014,250.05616.42371c3.66074-1.18527,10.78699.17252,20.31362,3.3679,56.64995,19.0084,197.9972,102.97058,197.9972,102.97058Z" fill="#36344e"/><g><polygon points="276.61861 199.82522 250.03275 199.82522 248.01582 128.75784 276.61861 134.74463 276.61861 199.82522" fill="#faafb2"/><path d="m224.14172,222.65658c-2.7955,0-5.28263-.06942-7.15673-.24112-7.06283-.64836-13.7993-5.8594-17.18614-8.90779-1.51831-1.36676-2.00706-3.55047-1.21614-5.43356v-.00062c.56809-1.35126,1.70178-2.35727,3.11069-2.76017l18.6592-5.33067,30.2128-20.38485.33658.60435c.12583.22562,3.09241,5.56931,4.08633,9.18239.3778,1.3742.27831,2.51905-.29536,3.40233-.39856.61365-.95022.97006-1.40054,1.17275.54732.5746,2.25965,1.73371,7.54042,2.5767,7.70003,1.22419,9.32743-6.76251,9.39282-7.10219l.05145-.26653.22841-.14814c3.66886-2.36223,5.92355-3.43394,6.70393-3.2077.48627.14566,1.29982.38864,3.4857,22.14087.22128.68059,1.75633,5.68832.71189,10.47414-1.13556,5.20794-23.88232,3.41597-28.43106,3.00377-.12924.01612-17.16351,1.22605-28.83427,1.22605Z" fill="#36344e"/></g><path d="m468.36698,106.76219l-32.15054,45.12053c-49.95884,5.91846-66.16175-36.07389-66.16175-36.07389l-67.40672-64.4963c.99755,6.29371.77247,14.47007-.25511,23.58409-4.33578,38.57189-25.77424,59.84801-25.77424,59.84801l-28.60279-5.98679s1.31273-100.24925,22.35396-124.96623c56.64995,19.0084,197.9972,102.97058,197.9972,102.97058Z" fill="#36344e"/><path d="m565.72879,176.60389l-11.11114,30.18434c-10.91172,8.00192-25.30993,9.38766-37.56862,3.65871-18.69804-8.73831-43.73157-22.52381-46.05087-34.58419l-40.54077-15.89987,11.25458-72.61366,82.27798,40.95212c12.32459,6.1343,23.43211,14.51416,32.48406,24.88659,5.29601,6.06858,9.8836,12.76508,11.00612,18.65832l-1.75133,4.75764Z" fill="#6c63ff"/><g><path id="uuid-5f8c080a-0faa-4c54-a3ce-d5e3b37a5fe2-55" d="m344.27725,222.35808c-8.39414,1.01464-15.69315-2.65695-16.30263-8.20007-.60948-5.5431,5.7008-10.85759,14.09808-11.87143,3.34908-.45273,6.7522-.06668,9.9246,1.12586l131.09084-10.43113,2.81264,26.38467-132.20088-.47149c-2.83096,1.91839-6.062,3.10604-9.42264,3.46359,0,0-.00002,0,0,0Z" fill="#faafb2"/><path d="m558.31185,190.79958l-3.39094,17.46901c-4.26948,11.98954-11.51489,14.0669-24.23416,14.5116-19.40226.67836-45.19509,1.36053-45.34692.19936-.24354-1.86245-8.46527-34.31646-2.31547-48.85427l75.2875,16.67431Z" fill="#6c63ff"/></g></g></svg>