<svg width="40" height="40" viewBox="0 0 33 36" fill="none" xmlns="http://www.w3.org/2000/svg">
<path d="M16.6 18.0889C19.8695 18.0889 22.52 15.1646 22.52 11.5573C22.52 7.94995 19.8695 5.02563 16.6 5.02563C13.3305 5.02563 10.68 7.94995 10.68 11.5573C10.68 15.1646 13.3305 18.0889 16.6 18.0889Z" fill="#8F8F8F"/>
<path d="M19.56 20.1899H13.64C11.8082 20.1899 10.0515 20.9928 8.75625 22.4219C7.461 23.8509 6.73334 25.7892 6.73334 27.8102C6.73334 28.6763 7.04519 29.507 7.6003 30.1195C8.15541 30.7319 8.9083 31.076 9.69334 31.076H23.5067C24.2917 31.076 25.0446 30.7319 25.5997 30.1195C26.1548 29.507 26.4667 28.6763 26.4667 27.8102C26.4667 25.7892 25.739 23.8509 24.4438 22.4219C23.1485 20.9928 21.3918 20.1899 19.56 20.1899Z" fill="#8F8F8F"/>
</svg>
