<svg width="40" height="40" viewBox="0 0 36 32" fill="none" xmlns="http://www.w3.org/2000/svg">
<path d="M1.5 29.3067C1.5 30.0534 2.175 30.6534 3.015 30.6534H22.5C23.34 30.6534 24.015 30.0534 24.015 29.3067V28H1.5V29.3067ZM12.75 11.9867C7.125 11.9867 1.5 14.6667 1.5 20H24C24 14.6667 18.375 11.9867 12.75 11.9867ZM5.43 17.3334C7.095 15.2667 10.635 14.6534 12.75 14.6534C14.865 14.6534 18.405 15.2667 20.07 17.3334H5.43ZM1.5 22.6667H24V25.3334H1.5V22.6667ZM27 6.66671V1.33337H24V6.66671H16.5L16.845 9.33337H31.185L29.085 28H27V30.6667H29.58C30.84 30.6667 31.875 29.8 32.025 28.7067L34.5 6.66671H27Z" fill="#001449"/>
</svg>
