<svg width="33" height="33" viewBox="0 0 32 24" fill="none" xmlns="http://www.w3.org/2000/svg">
<path d="M24.8 18H26.2C26.6 18 27 17.6 27 17.2V2.8C27 2.4 26.6 2 26.2 2H24.8C24.4 2 24 2.4 24 2.8V17.2C24 17.6 24.4 18 24.8 18ZM12.8 18H14.2C14.6 18 15 17.6 15 17.2V4.8C15 4.4 14.6 4 14.2 4H12.8C12.4 4 12 4.4 12 4.8V17.2C12 17.6 12.4 18 12.8 18ZM18.8 18H20.2C20.6 18 21 17.6 21 17.2V8.8C21 8.4 20.6 8 20.2 8H18.8C18.4 8 18 8.4 18 8.8V17.2C18 17.6 18.4 18 18.8 18ZM31 21H3V1C3 0.4475 2.5525 0 2 0H1C0.4475 0 0 0.4475 0 1V22C0 23.1044 0.895625 24 2 24H31C31.5525 24 32 23.5525 32 23V22C32 21.4475 31.5525 21 31 21ZM6.8 18H8.2C8.6 18 9 17.6 9 17.2V12.8C9 12.4 8.6 12 8.2 12H6.8C6.4 12 6 12.4 6 12.8V17.2C6 17.6 6.4 18 6.8 18Z" fill="#001449"/>
</svg>
