<svg width="105" height="102"  viewBox="0 0 127 102" fill="none" xmlns="http://www.w3.org/2000/svg">
<g clip-path="url(#clip0_118_3968)">
<path d="M0 92.4525C0 92.5646 0.085351 92.6545 0.191636 92.6545H126.808C126.915 92.6545 127 92.5646 127 92.4525C127 92.3405 126.915 92.2505 126.808 92.2505H0.191636C0.085351 92.2505 0 92.3405 0 92.4525Z" fill="#3F3D56"/>
<path d="M69.5753 35.2949L70.8818 26.6865L62.063 22.8988L60.7565 35.9835L69.5753 35.2949Z" fill="#A0616A"/>
<path d="M67.3468 29.4537C72.3136 29.4537 76.3399 25.2091 76.3399 19.973C76.3399 14.7369 72.3136 10.4922 67.3468 10.4922C62.3801 10.4922 58.3538 14.7369 58.3538 19.973C58.3538 25.2091 62.3801 29.4537 67.3468 29.4537Z" fill="#A0616A"/>
<path d="M66.6291 7.22675C66.8893 7.38689 67.2379 7.1446 67.3213 6.83936C67.4048 6.53413 67.3076 6.21005 67.2112 5.90909C67.0494 5.40406 66.8877 4.89902 66.7259 4.39399C66.3818 3.31944 66.0166 2.20735 65.2713 1.38948C64.1464 0.155039 62.3586 -0.158997 60.7493 0.0685108C58.6826 0.360675 56.6434 1.54046 55.6825 3.4914C54.7215 5.44233 55.1306 8.16458 56.867 9.38176C54.3923 12.372 53.5296 15.7046 53.6658 19.6704C53.8021 23.6362 57.9015 27.2861 60.5749 30.0798C61.1719 29.6983 61.7147 27.9103 61.3864 27.2607C61.0581 26.6112 61.5284 25.8587 61.1219 25.2604C60.7153 24.6621 60.3751 25.6147 60.7861 25.0198C61.0455 24.6445 60.0332 23.7808 60.4187 23.5562C62.2836 22.4694 62.9038 20.0189 64.0751 18.1423C65.4879 15.8788 67.9058 14.3459 70.4646 14.0916C71.8742 13.9516 73.363 14.2053 74.5184 15.068C75.6737 15.9307 76.4217 17.4723 76.1538 18.938C76.8477 18.1952 77.1931 17.1067 77.0628 16.0734C76.9325 15.04 76.3294 14.0844 75.4756 13.5585C75.9948 11.7486 75.55 9.66675 74.3451 8.26621C73.1401 6.86566 68.2522 7.1042 66.493 7.4728" fill="#2F2E41"/>
<path d="M66.3559 14.1466C64.026 14.4118 62.3437 16.5395 60.9231 18.5044C60.1044 19.6369 59.2467 20.8876 59.2673 22.3114C59.2881 23.7509 60.201 24.9856 60.6373 26.3498C61.3505 28.5797 60.6554 31.2327 58.9578 32.7606C60.6352 33.0961 62.4486 31.7702 62.7382 29.9962C63.0753 27.9312 61.5904 25.9381 61.7663 23.8509C61.9212 22.012 63.2958 20.5968 64.4644 19.2219C65.6329 17.847 66.7304 16.0225 66.1928 14.2656" fill="#2F2E41"/>
<path d="M66.8017 100.981C66.8017 100.981 47.317 103.019 45.8677 100.642C44.4185 98.2652 65.6409 95.8885 65.6409 95.8885L66.8017 100.981Z" fill="#A0616A"/>
<path d="M54.3783 62.8973L53.9757 65.1504C55.0721 66.8563 55.177 68.6599 54.5393 70.5367L76.7615 70.7064C76.5227 68.168 76.2612 65.4492 77.1761 62.9545L54.3783 62.8973Z" fill="#A0616A"/>
<path d="M90.7771 79.6479L82.7177 72.8507C81.6468 71.9475 80.9536 70.6046 80.8155 69.1661L79.5735 56.2176L86.9722 53.6176L88.7558 66.4387L93.202 77.0915L90.7771 79.6479Z" fill="#A0616A"/>
<path d="M59.9339 34.4619L70.7229 33.9526L82.1561 39.6938L77.4862 63.1519L53.8147 65.0193L50.5941 39.0455L59.9339 34.4619Z" fill="#7D78D2"/>
<path d="M77.1762 68.5566C78.7972 70.8094 79.4779 76.2334 80.1672 81.6284C80.1672 81.6284 50.2156 81.4586 50.0546 81.4586C49.8935 81.4586 54.6319 70.0845 54.6319 70.0845L77.1762 68.5566Z" fill="#2F2E41"/>
<path d="M78.1545 80.1894L80.1673 81.6284C80.1673 81.6284 108.67 79.5913 106.254 89.098C103.839 98.6047 96.2704 100.133 96.2704 100.133L65.6746 102L65.3525 96.7373C65.3525 96.7373 35.8839 103.698 33.1464 89.4375C30.4089 75.1774 50.0546 81.4586 50.0546 81.4586L78.1545 80.1894Z" fill="#2F2E41"/>
<path d="M66.1278 91.4747C66.1278 91.4747 66.8017 87.7399 71.6326 89.2678C76.4636 90.7956 79.2011 92.8328 79.2011 92.8328L67.6069 95.8885L66.1278 91.4747Z" fill="#A0616A"/>
<path d="M78.2108 39.3002C78.2108 39.3002 83.6859 37.263 85.7793 43.8838C87.8727 50.5045 87.3896 55.937 87.3896 55.937L79.338 58.6532L78.2108 39.3002Z" fill="#7D78D2"/>
<path d="M40.6672 80.6812L38.9106 77.4184L42.7057 67.4586L44.4896 54.6361L51.8883 57.2361L50.6313 70.3412C50.5029 71.6802 49.8575 72.9303 48.8607 73.7709L40.6672 80.6812Z" fill="#A0616A"/>
<path d="M53.2511 39.3002C53.2511 39.3002 47.776 37.263 45.6827 43.8838C43.5893 50.5045 44.0723 55.937 44.0723 55.937L52.1239 58.6532L53.2511 39.3002Z" fill="#7D78D2"/>
<path d="M93.1062 81.1468C95.2406 81.1468 96.9709 78.4486 96.9709 75.1202C96.9709 71.7918 95.2406 69.0936 93.1062 69.0936C90.9718 69.0936 89.2415 71.7918 89.2415 75.1202C89.2415 78.4486 90.9718 81.1468 93.1062 81.1468Z" fill="#A0616A"/>
<path d="M38.8389 82.1654C40.9733 82.1654 42.7036 79.4672 42.7036 76.1388C42.7036 72.8104 40.9733 70.1122 38.8389 70.1122C36.7044 70.1122 34.9741 72.8104 34.9741 76.1388C34.9741 79.4672 36.7044 82.1654 38.8389 82.1654Z" fill="#A0616A"/>
<path d="M53.5973 86.212L67.607 90.4561L70.3445 95.549L65.1092 96.7374" fill="#2F2E41"/>
</g>
<defs>
<clipPath id="clip0_118_3968">
<rect width="127" height="102" fill="white"/>
</clipPath>
</defs>
</svg>
