<svg width="24" height="25" viewBox="0 0 24 25" fill="none" xmlns="http://www.w3.org/2000/svg">
<path d="M22.7089 11.9008C22.7235 18.2283 17.9436 23.3154 12.1016 23.3341C6.25952 23.3528 1.45612 18.2965 1.44148 11.9691C1.42683 5.64166 6.20676 0.554559 12.0488 0.53582C17.8908 0.517081 22.6942 5.57345 22.7089 11.9008Z" fill="white" stroke="black"/>
<g clip-path="url(#clip0_136_1298)">
<mask id="path-2-inside-1_136_1298" fill="white">
<path d="M12.2578 12.5525L16.2356 12.5397C16.3039 12.5452 16.3725 12.5355 16.4371 12.5112C16.5018 12.4869 16.561 12.4486 16.6112 12.3987C16.6613 12.3488 16.7013 12.2883 16.7285 12.2211C16.7558 12.1539 16.7698 12.0815 16.7696 12.0082C16.7695 11.935 16.7551 11.8626 16.7276 11.7956C16.7 11.7285 16.6597 11.6683 16.6094 11.6188C16.559 11.5692 16.4996 11.5313 16.4348 11.5074C16.3701 11.4835 16.3014 11.4743 16.2331 11.4801L12.2553 11.4929L12.2455 7.23936C12.2355 7.10595 12.1788 6.9815 12.0868 6.89088C11.9947 6.80026 11.874 6.75014 11.7489 6.75054C11.6237 6.75094 11.5033 6.80183 11.4116 6.89304C11.32 6.98425 11.2639 7.10907 11.2545 7.24254L11.2644 11.4961L7.28655 11.5088C7.15526 11.5097 7.02959 11.566 6.93699 11.6656C6.84438 11.7652 6.79237 11.8999 6.7923 12.0402C6.79302 12.1806 6.84565 12.315 6.93872 12.4139C7.03178 12.5129 7.15771 12.5685 7.289 12.5685L11.2668 12.5557L11.2767 16.8092C11.2774 16.9496 11.33 17.084 11.4231 17.1829C11.5161 17.2819 11.6421 17.3375 11.7734 17.3375C11.9046 17.3366 12.0303 17.2803 12.1229 17.1807C12.2155 17.0811 12.2675 16.9464 12.2676 16.806L12.2578 12.5525Z"/>
</mask>
<path d="M12.2578 12.5525L16.2356 12.5397C16.3039 12.5452 16.3725 12.5355 16.4371 12.5112C16.5018 12.4869 16.561 12.4486 16.6112 12.3987C16.6613 12.3488 16.7013 12.2883 16.7285 12.2211C16.7558 12.1539 16.7698 12.0815 16.7696 12.0082C16.7695 11.935 16.7551 11.8626 16.7276 11.7956C16.7 11.7285 16.6597 11.6683 16.6094 11.6188C16.559 11.5692 16.4996 11.5313 16.4348 11.5074C16.3701 11.4835 16.3014 11.4743 16.2331 11.4801L12.2553 11.4929L12.2455 7.23936C12.2355 7.10595 12.1788 6.9815 12.0868 6.89088C11.9947 6.80026 11.874 6.75014 11.7489 6.75054C11.6237 6.75094 11.5033 6.80183 11.4116 6.89304C11.32 6.98425 11.2639 7.10907 11.2545 7.24254L11.2644 11.4961L7.28655 11.5088C7.15526 11.5097 7.02959 11.566 6.93699 11.6656C6.84438 11.7652 6.79237 11.8999 6.7923 12.0402C6.79302 12.1806 6.84565 12.315 6.93872 12.4139C7.03178 12.5129 7.15771 12.5685 7.289 12.5685L11.2668 12.5557L11.2767 16.8092C11.2774 16.9496 11.33 17.084 11.4231 17.1829C11.5161 17.2819 11.6421 17.3375 11.7734 17.3375C11.9046 17.3366 12.0303 17.2803 12.1229 17.1807C12.2155 17.0811 12.2675 16.9464 12.2676 16.806L12.2578 12.5525Z" fill="#FF0000"/>
<path d="M12.2578 12.5525L12.2505 9.97024L9.83689 9.97799L9.84286 12.5589L12.2578 12.5525ZM16.2356 12.5397L16.4146 9.96457L16.3216 9.95717L16.2283 9.95747L16.2356 12.5397ZM16.2331 11.4801L16.2404 14.0624L16.3337 14.0621L16.4267 14.0541L16.2331 11.4801ZM12.2553 11.4929L9.84041 11.4992L9.84638 14.0829L12.2626 14.0752L12.2553 11.4929ZM12.2455 7.23936L14.6604 7.233L14.6601 7.13325L14.6527 7.03382L12.2455 7.23936ZM11.2545 7.24254L8.84636 7.0497L8.83939 7.14916L8.83962 7.2489L11.2545 7.24254ZM11.2644 11.4961L11.2716 14.0783L13.6852 14.0706L13.6793 11.4897L11.2644 11.4961ZM7.28655 11.5088L7.27927 8.92655L7.27208 8.9266L7.28655 11.5088ZM6.7923 12.0402L4.37739 12.0389L4.37739 12.0466L4.37743 12.0543L6.7923 12.0402ZM7.289 12.5685L7.28909 15.1508L7.29627 15.1507L7.289 12.5685ZM11.2668 12.5557L13.6817 12.5493L13.6757 9.96566L11.2595 9.97342L11.2668 12.5557ZM11.2767 16.8092L8.86174 16.8156L8.86178 16.8233L11.2767 16.8092ZM11.7734 17.3375L11.7734 19.9197L11.7806 19.9197L11.7878 19.9197L11.7734 17.3375ZM12.2676 16.806L14.6825 16.8074L14.6825 16.7997L12.2676 16.806ZM12.265 15.1348L16.2429 15.122L16.2283 9.95747L12.2505 9.97024L12.265 15.1348ZM16.0566 15.1149C16.4568 15.1467 16.8588 15.0897 17.2373 14.9476L15.6369 10.0748C15.8862 9.98116 16.151 9.94361 16.4146 9.96457L16.0566 15.1149ZM17.2373 14.9476C17.6159 14.8054 17.9628 14.5812 18.2565 14.2889L14.9659 10.5085C15.1592 10.316 15.3877 10.1684 15.6369 10.0748L17.2373 14.9476ZM18.2565 14.2889C18.5501 13.9967 18.7841 13.6427 18.9438 13.2492L14.5132 11.1931C14.6184 10.934 14.7725 10.7009 14.9659 10.5085L18.2565 14.2889ZM18.9438 13.2492C19.1036 12.8556 19.1855 12.431 19.1845 12.0019L14.3547 12.0146C14.3541 11.7319 14.4081 11.4523 14.5132 11.1931L18.9438 13.2492ZM19.1845 12.0019C19.1835 11.5727 19.0996 11.1484 18.9379 10.7555L14.5172 12.8356C14.4107 12.5768 14.3554 12.2972 14.3547 12.0146L19.1845 12.0019ZM18.9379 10.7555C18.7762 10.3626 18.5403 10.0096 18.2449 9.71886L14.9738 13.5186C14.7792 13.3271 14.6237 13.0945 14.5172 12.8356L18.9379 10.7555ZM18.2449 9.71886C17.9495 9.4281 17.6011 9.20584 17.2215 9.06599L15.6481 13.9488C15.398 13.8567 15.1685 13.7102 14.9738 13.5186L18.2449 9.71886ZM17.2215 9.06599C16.842 8.92614 16.4396 8.87175 16.0396 8.90614L16.4267 14.0541C16.1632 14.0768 15.8981 14.0409 15.6481 13.9488L17.2215 9.06599ZM16.2259 8.89785L12.248 8.91061L12.2626 14.0752L16.2404 14.0624L16.2259 8.89785ZM14.6702 11.4865L14.6604 7.233L9.83057 7.24572L9.84041 11.4992L14.6702 11.4865ZM14.6527 7.03382C14.5943 6.252 14.2621 5.52238 13.7223 4.99099L10.4512 8.79077C10.0955 8.44062 9.87668 7.95989 9.83822 7.44489L14.6527 7.03382ZM13.7223 4.99099C13.1824 4.4596 12.475 4.16591 11.7416 4.16826L11.7561 9.33282C11.2731 9.33437 10.807 9.14091 10.4512 8.79077L13.7223 4.99099ZM11.7416 4.16826C11.0082 4.17062 10.3029 4.46877 9.76631 5.00281L13.0569 8.78328C12.7036 9.1349 12.2392 9.33127 11.7561 9.33282L11.7416 4.16826ZM9.76631 5.00281C9.22973 5.53685 8.90111 6.26775 8.84636 7.0497L13.6627 7.43538C13.6266 7.95038 13.4102 8.43166 13.0569 8.78328L9.76631 5.00281ZM8.83962 7.2489L8.84946 11.5024L13.6793 11.4897L13.6694 7.23618L8.83962 7.2489ZM11.2571 8.91379L7.27927 8.92656L7.29382 14.0911L11.2716 14.0783L11.2571 8.91379ZM7.27208 8.9266C6.50286 8.93151 5.76691 9.26168 5.22471 9.84464L8.64926 13.4866C8.29227 13.8704 7.80765 14.0878 7.30101 14.0911L7.27208 8.9266ZM5.22471 9.84464C4.68251 10.4276 4.37778 11.2164 4.37739 12.0389L9.20721 12.0416C9.20696 12.5833 9.00625 13.1027 8.64926 13.4866L5.22471 9.84464ZM4.37743 12.0543C4.38162 12.8769 4.69009 13.6645 5.23581 14.2449L8.64163 10.583C9.00122 10.9654 9.20441 11.4844 9.20717 12.0262L4.37743 12.0543ZM5.23581 14.2449C5.78153 14.8252 6.51978 15.1508 7.28909 15.1508L7.2889 9.98618C7.79564 9.98616 8.28203 10.2006 8.64163 10.583L5.23581 14.2449ZM7.29627 15.1507L11.2741 15.138L11.2595 9.97342L7.28172 9.98619L7.29627 15.1507ZM8.85192 12.5621L8.86175 16.8156L13.6916 16.8029L13.6817 12.5493L8.85192 12.5621ZM8.86178 16.8233C8.86598 17.6459 9.17445 18.4335 9.72017 19.0139L13.126 15.352C13.4856 15.7344 13.6888 16.2533 13.6915 16.7952L8.86178 16.8233ZM9.72017 19.0139C10.2659 19.5942 11.0041 19.9198 11.7734 19.9197L11.7733 14.7552C12.28 14.7551 12.7664 14.9696 13.126 15.352L9.72017 19.0139ZM11.7878 19.9197C12.557 19.9148 13.293 19.5846 13.8352 19.0016L10.4106 15.3597C10.7676 14.9759 11.2522 14.7584 11.7589 14.7552L11.7878 19.9197ZM13.8352 19.0016C14.3774 18.4187 14.6821 17.6299 14.6825 16.8074L9.85269 16.8047C9.85294 16.2629 10.0537 15.7436 10.4106 15.3597L13.8352 19.0016ZM14.6825 16.7997L14.6727 12.5462L9.84286 12.5589L9.8527 16.8124L14.6825 16.7997Z" fill="#001449" mask="url(#path-2-inside-1_136_1298)"/>
</g>
<defs>
<clipPath id="clip0_136_1298">
<rect width="16.4584" height="16.4673" fill="white" transform="matrix(0.684911 0.728383 -0.681163 0.732374 11.7333 0.000244141)"/>
</clipPath>
</defs>
</svg>
