<svg width="204" height="165" viewBox="0 0 204 165" fill="none" xmlns="http://www.w3.org/2000/svg">
<g clip-path="url(#clip0_181_1438)">
<path d="M45.9176 83.4498C43.3218 83.2753 42.1128 83.7805 41.3321 84.295C41.0815 84.4602 40.8342 84.6537 40.6005 84.8627C41.7804 82.4694 42.9889 80.0867 44.2204 77.7206C44.2283 78.0382 44.2848 78.1889 44.4244 78.2643C44.7437 78.4366 45.4887 77.8849 46.9657 76.7744C48.0883 75.9303 48.2318 75.7163 48.3152 75.5697C48.6087 75.0542 48.5837 74.6294 48.4028 72.7773C48.0782 69.4532 47.9945 69.1412 48.1519 68.3563C48.2061 68.086 48.3541 67.4347 48.249 67.3973C48.1411 67.3589 47.9734 68.0422 47.3761 68.488C46.7941 68.9224 46.3844 68.6981 45.8555 68.9778C45.1717 69.3394 44.9835 70.1757 44.7004 71.5217C44.4498 72.7137 44.5137 73.1354 44.3643 75.3813C44.322 76.0175 44.2818 76.5126 44.2544 76.9023C43.1518 79.0102 42.0698 81.1335 41.0073 83.2651C41.0217 83.2066 41.0352 83.1515 41.0469 83.1036C41.3757 81.756 41.2661 81.134 41.1009 80.6972C40.8332 79.9894 40.3012 79.5657 39.2482 78.747C38.2162 77.9448 37.3434 77.4829 36.2944 76.9343C34.9194 76.2152 34.232 75.8557 34.0455 75.9607C33.5772 76.2246 33.6468 77.6076 34.038 79.338C33.1475 78.8787 32.6746 78.6634 32.5251 78.7477C32.4606 78.784 32.4067 78.8421 32.3621 78.9187C31.6964 78.8859 30.8141 78.9237 29.8045 79.0561C30.601 78.7681 31.4963 78.3883 32.4606 77.8702C33.2965 77.4211 33.7136 77.1926 33.6736 77.0039C33.5304 76.3283 27.8226 76.342 22.9297 78.9098C20.6261 80.1187 19.86 81.1816 19.4639 82.0284C19.3367 82.3004 19.2271 82.5947 19.1373 82.8952C18.8906 80.2382 18.6739 77.5752 18.4856 74.9145C18.6586 75.1811 18.7856 75.2801 18.944 75.2713C19.3063 75.2512 19.6526 74.3913 20.3303 72.6724C20.8455 71.3658 20.8558 71.1084 20.8502 70.9398C20.8306 70.347 20.5871 69.9979 19.4639 68.5142C17.448 65.851 17.2135 65.6288 16.9369 64.8775C16.8417 64.6188 16.627 63.9863 16.518 64.0094C16.4059 64.0331 16.6204 64.7032 16.3447 65.3955C16.0759 66.0702 15.6094 66.0933 15.3049 66.6083C14.9113 67.2741 15.1885 68.0852 15.6515 69.3805C16.0615 70.5275 16.3367 70.8534 17.3844 72.8457C17.6812 73.41 17.906 73.853 18.0865 74.1994C18.2497 76.5725 18.4384 78.948 18.6482 81.3204C18.6299 81.263 18.6125 81.2091 18.5974 81.1621C18.1726 79.8417 17.7538 79.3689 17.3844 79.083C16.786 78.6198 16.1109 78.5369 14.7851 78.39C13.4859 78.246 12.5003 78.3089 11.3193 78.39C9.77122 78.4963 8.99717 78.5494 8.89322 78.7365C8.6079 79.2499 9.57209 80.567 11.0128 81.9759C9.8367 82.0592 9.23716 82.1206 9.14662 82.2835C8.90987 82.7096 9.53506 83.6898 10.5767 84.8157C9.85268 84.8779 9.47077 84.9432 9.40002 85.0705C8.6052 86.5008 17.4864 94.1639 19.4508 92.6939C19.6 92.5823 19.7057 92.4184 19.7784 92.2186C19.8106 92.4889 19.8435 92.7592 19.8763 93.0296C17.5557 92.7684 13.0978 93.4678 10.4528 96.2357C9.13798 97.6117 8.9398 98.7996 8.89322 99.1812C8.68657 100.874 9.51029 102.675 10.1937 102.807C10.3955 104.067 11.0277 105.109 11.5466 105.1C12.1971 105.089 12.082 103.436 13.626 101.635C14.7034 100.378 15.9846 99.7531 16.7453 99.3823C18.379 98.5858 19.3282 98.6092 20.5051 97.9604C20.5287 98.1351 20.5539 98.3098 20.5778 98.4846C18.4221 98.8462 15.9603 99.7705 14.2539 101.556C12.939 102.932 12.7409 104.12 12.6943 104.502C12.567 105.544 12.8319 106.627 13.2131 107.338C12.176 108.427 11.8893 109.564 11.3193 111.829C10.9551 113.276 11.0346 113.79 11.3193 114.082C11.5547 114.323 11.9266 114.409 13.3988 114.255C14.9958 114.088 15.7943 114.004 16.518 113.735C17.6628 113.31 18.452 112.579 19.9838 111.136C20.6136 110.543 21.1462 110.038 21.5804 109.599C21.8063 109.676 22.0183 109.734 22.2324 109.777C22.2573 109.781 22.2818 109.785 22.3066 109.79C22.7016 112.13 23.1189 114.464 23.5581 116.788C22.1294 117.107 20.9086 118.047 20.2378 119.4L14.9369 130.093C14.6022 130.767 14.4253 131.522 14.4253 132.276V159.77C14.4253 162.481 16.6311 164.687 19.3424 164.687H31.7156C34.4269 164.687 36.6327 162.481 36.6327 159.77V134.453C36.6327 133.836 36.5184 133.232 36.2928 132.657L31.2408 119.787C30.5103 117.927 28.7646 116.715 26.7742 116.671C27.8062 113.949 28.8709 111.23 29.973 108.522C30.1428 108.456 30.2931 108.388 30.4237 108.315C30.627 108.538 31.0435 108.798 31.9269 109.221C33.3755 109.913 34.0998 110.26 34.8572 110.409C36.0553 110.645 37.1101 110.436 39.1707 110.007C41.9745 109.423 43.3824 109.115 43.6757 108.299C44.0817 107.17 42.8085 105.716 42.4576 105.315C41.6949 104.444 40.853 104.047 40.3329 103.808C39.6574 103.498 37.7323 102.614 35.4052 103.223C33.9404 103.607 33.1016 104.427 31.4237 106.066C31.2622 106.223 31.1227 106.367 30.9988 106.501C30.9709 106.42 30.9395 106.341 30.9049 106.263C31.1402 105.695 31.3755 105.128 31.6137 104.562C33.3342 102.93 34.1809 102.032 34.0202 101.26C33.9448 100.898 33.7166 100.594 33.4229 100.34C33.7493 99.5912 34.0764 98.8425 34.4074 98.0962C34.5596 98.0927 34.7167 98.0855 34.8857 98.0696C35.7723 97.986 36.7761 97.8914 36.8831 97.4657C36.9397 97.2405 36.7447 96.9112 36.3615 96.5405C36.9153 96.386 37.7589 95.2589 39.6525 94.6488C41.2284 94.1411 42.6471 94.2788 43.4894 94.3606C45.663 94.5716 46.3722 95.277 48.3264 95.0928C49.213 95.0092 50.2167 94.9146 50.3238 94.4889C50.3718 94.2978 50.2375 94.0313 49.9625 93.7287C50.4549 93.7966 50.9818 93.8505 51.5435 93.8828C52.4909 93.9372 52.9659 93.9607 53.0306 93.7789C53.262 93.1282 48.3903 90.1545 42.8767 89.7838C41.5381 89.6938 40.5702 89.7853 39.8378 89.9649C41.6001 89.3072 44.2229 88.3072 47.1024 89.1167C48.0937 89.3954 50.0998 90.1655 53.0639 90.3357C54.0113 90.3901 54.4863 90.4136 54.551 90.2318C54.7823 89.5815 49.9147 86.6101 44.4041 86.2374C45.6831 85.9789 47.1178 85.9066 48.6228 86.3298C49.6141 86.6085 51.6202 87.3785 54.5843 87.5488C55.5317 87.6032 56.0068 87.6267 56.0714 87.4449C56.3028 86.7942 51.4311 83.8205 45.9176 83.4498ZM20.4474 94.8423C20.522 94.7836 20.5952 94.7249 20.6658 94.6662C20.7923 94.8519 20.9258 94.9948 21.0594 95.0851C21.0737 95.1597 21.0889 95.2332 21.106 95.3057C20.9177 95.2855 20.7161 95.2718 20.5025 95.2647C20.4845 95.124 20.4652 94.9831 20.4474 94.8423ZM31.3366 85.093C31.3582 85.2163 31.3815 85.3421 31.4072 85.4708C31.1716 85.4257 30.9019 85.3936 30.6068 85.3745C30.8421 85.2888 31.0851 85.1959 31.3366 85.093ZM31.8977 87.4238C31.7169 87.4056 31.5234 87.3936 31.32 87.3873C31.479 87.2662 31.6363 87.1433 31.7819 87.0211C31.8192 87.1544 31.8577 87.2887 31.8977 87.4238ZM27.7261 91.4386C29.592 90.5623 30.5583 90.7491 32.0879 89.5996C32.2303 89.4926 32.3762 89.3828 32.5179 89.2722C33.0255 90.6254 33.633 91.9163 34.2588 92.8519C32.5063 91.9673 30.0985 91.2484 27.7261 91.4386ZM32.2178 80.2767C32.274 81.0151 32.4553 81.9537 32.725 82.9624C32.7097 82.9623 32.6944 82.9621 32.6789 82.9621C32.0093 82.6252 31.6404 82.4754 31.5114 82.5481C31.3772 82.6237 31.2872 82.7916 31.2363 83.033C29.1319 83.2334 26.2955 83.8764 23.6899 85.2438C21.3863 86.4527 20.6202 87.5156 20.2241 88.3624C20.0552 88.7234 19.9172 89.1236 19.8159 89.5257C19.7639 89.0594 19.7105 88.5939 19.6603 88.1267C20.7927 87.6862 22.5048 83.4312 26.7421 82.2296C27.7017 81.9574 29.7156 81.5773 32.2178 80.2767ZM19.8908 95.2625C19.922 95.2398 19.952 95.22 19.9838 95.1962C20.0321 95.1599 20.0809 95.1232 20.1297 95.0863C20.1371 95.144 20.145 95.2017 20.1524 95.2594C20.0664 95.2595 19.9797 95.2603 19.8908 95.2625ZM20.8293 97.767C20.966 97.6797 21.1051 97.5859 21.2508 97.4764C21.47 97.3117 21.6979 97.1404 21.9048 96.9698C22.065 97.1312 22.2293 97.2258 22.3837 97.2231C22.4441 97.222 22.4963 97.2024 22.5455 97.1742C22.4127 97.5715 22.3345 97.9608 22.3096 98.3067C21.8736 98.322 21.4074 98.3612 20.9202 98.4307C20.8899 98.2094 20.8591 97.9882 20.8293 97.767ZM26.4052 116.667H24.6434C24.391 116.667 24.1426 116.688 23.8988 116.724C23.467 114.439 23.0564 112.145 22.6672 109.843C23.7033 109.958 24.7371 109.751 26.5459 109.374C27.8276 109.108 28.8143 108.898 29.5395 108.672C28.4606 111.329 27.4166 113.996 26.4052 116.667ZM30.53 105.583C30.6749 105.448 30.8283 105.304 30.9882 105.153C30.8905 105.387 30.7954 105.621 30.6982 105.855C30.644 105.761 30.5876 105.671 30.53 105.583ZM31.4209 99.3544C30.3151 99.0109 29.3898 99.1127 28.8215 99.1812C28.109 99.267 26.1251 99.5104 24.491 101.09C23.9455 101.075 23.328 101.106 22.6699 101.188C23.0203 101.028 23.3829 100.819 23.7848 100.517C24.4967 99.9818 25.3026 99.3762 25.1711 98.9574C25.1104 98.764 24.8436 98.6034 24.4312 98.4887C24.8958 98.1809 25.4728 97.8637 26.2119 97.6256C27.7877 97.1178 29.2064 97.2556 30.0487 97.3374C31.8721 97.5144 32.6673 98.0374 34.0291 98.0932C33.7297 98.7689 33.4343 99.4469 33.1388 100.125C32.5065 99.6936 31.7251 99.4489 31.4209 99.3544ZM35.4304 95.81C35.4424 95.7834 35.4541 95.7567 35.4661 95.7302C35.5604 95.7192 35.6535 95.7074 35.7443 95.6943C35.7508 95.8311 35.7683 95.9547 35.7957 96.0648C35.6821 95.9805 35.5587 95.8953 35.4304 95.81ZM38.2913 90.6291C38.2828 90.6346 38.2745 90.641 38.2661 90.6466C38.2862 90.5743 38.3051 90.5048 38.3234 90.4367C38.4786 90.4153 38.6561 90.3716 38.8541 90.311C38.6419 90.4125 38.4561 90.5204 38.2913 90.6291Z" fill="#F2F2F2"/>
<path d="M61.1139 162.368L64.9789 162.368L66.8174 147.462L61.1132 147.463L61.1139 162.368Z" fill="#FFB6B6"/>
<path d="M74.3557 162.28C74.476 162.483 74.5395 163.137 74.5395 163.373C74.5395 164.097 73.9522 164.684 73.2278 164.684H61.2585C60.7643 164.684 60.3636 164.284 60.3636 163.789V163.291C60.3636 163.291 59.7715 161.794 60.9906 159.948C60.9906 159.948 62.5057 161.393 64.7696 159.13L65.4372 157.92L70.2699 161.454L72.9486 161.784C73.5346 161.856 74.0542 161.773 74.3557 162.28Z" fill="#2F2E41"/>
<path d="M82.3998 162.368L86.2648 162.368L88.1033 147.462L82.399 147.463L82.3998 162.368Z" fill="#FFB6B6"/>
<path d="M95.6416 162.28C95.7619 162.483 95.8254 163.137 95.8254 163.373C95.8254 164.097 95.2381 164.684 94.5136 164.684H82.5444C82.0502 164.684 81.6495 164.284 81.6495 163.789V163.291C81.6495 163.291 81.0574 161.794 82.2764 159.948C82.2764 159.948 83.7915 161.393 86.0555 159.13L86.7231 157.92L91.5558 161.454L94.2345 161.784C94.8205 161.856 95.3401 161.773 95.6416 162.28Z" fill="#2F2E41"/>
<path d="M80.8472 43.7165C80.8472 43.7165 85.2987 41.6896 88.141 43.7165C90.9833 45.7434 93.5173 63.9853 90.4765 67.0256C87.4357 70.066 82.3676 63.2252 82.3676 63.2252L80.8472 43.7165Z" fill="#FFB6B6"/>
<path d="M64.0233 43.958C64.0233 43.958 59.5718 41.9311 56.7295 43.958C53.8872 45.9848 51.3531 64.2268 54.394 67.2671C57.4348 70.3074 62.5029 63.4667 62.5029 63.4667L64.0233 43.958Z" fill="#FFB6B6"/>
<path d="M64.15 66.3804C64.15 66.3804 62.6295 73.2211 60.8557 76.2614L73.7793 83.8622L83.9154 77.2749C83.9154 77.2749 79.1008 69.4207 79.861 67.1405L64.15 66.3804Z" fill="#FFB6B6"/>
<path d="M152.201 161.608L147.238 161.608L144.876 142.467L152.202 142.467L152.201 161.608Z" fill="#FFB6B6"/>
<path d="M135.196 161.496C135.041 161.756 134.96 162.596 134.96 162.899C134.96 163.829 135.714 164.583 136.644 164.583H152.015C152.65 164.583 153.165 164.069 153.165 163.434V162.794C153.165 162.794 153.925 160.871 152.359 158.501C152.359 158.501 150.414 160.357 147.506 157.45L146.649 155.897L140.443 160.435L137.003 160.858C136.25 160.951 135.583 160.844 135.196 161.496Z" fill="#2F2E41"/>
<path d="M167.543 161.608L162.58 161.608L160.219 142.467L167.544 142.467L167.543 161.608Z" fill="#FFB6B6"/>
<path d="M150.538 161.496C150.384 161.756 150.302 162.596 150.302 162.899C150.302 163.829 151.056 164.583 151.987 164.583H167.358C167.992 164.583 168.507 164.069 168.507 163.434V162.794C168.507 162.794 169.267 160.871 167.702 158.501C167.702 158.501 165.756 160.357 162.849 157.45L161.991 155.897L155.785 160.435L152.345 160.858C151.593 160.951 150.925 160.844 150.538 161.496Z" fill="#2F2E41"/>
<path d="M141.875 51.1873C141.875 51.1873 141.156 55.8135 141.989 58.7988L129.764 80.473L134.519 83.9384L150.4 63.9607L152.601 54.0901L141.875 51.1873Z" fill="#FFB6B6"/>
<path d="M133.79 87.0909C135.474 84.104 135.344 80.8393 133.499 79.799C131.654 78.7586 128.792 80.3366 127.108 83.3235C125.423 86.3103 125.553 89.5751 127.398 90.6154C129.243 91.6558 132.105 90.0778 133.79 87.0909Z" fill="#FFB6B6"/>
<path d="M146.644 73.239C146.644 73.239 140.8 77.3629 142.809 83.5186L141.165 104.283L144.818 147.015H152.686L153.95 116.336L159.064 96.9789L159.727 147.015L169.475 146.833C169.475 146.833 170.023 121.814 169.292 120.354C168.562 118.893 169.292 120.065 169.292 120.065L175.32 90.7657L174.406 70.6824L146.644 73.239Z" fill="#2F2E41"/>
<path d="M161.073 22.2893L150.48 26.3068L151.576 29.2287L142.809 35.8028L148.653 56.2556L145.366 74.5171L154.863 74.1519L175.32 72.3257L173.128 50.0467L173.493 28.4982L165.457 25.5764L161.073 22.2893Z" fill="#7D78D2"/>
<path d="M145.548 35.2551L142.809 35.803C142.809 35.803 141.53 36.716 141.53 40.0031C141.53 43.2902 141.53 45.4816 141.895 47.3077C141.895 47.3077 139.704 53.1514 140.434 54.6123C141.165 56.0732 150.297 56.0732 150.297 56.0732L145.548 35.2551Z" fill="#7D78D2"/>
<path d="M160.645 13.8143C160.645 18.4123 156.916 22.1398 152.318 22.1398C147.719 22.1398 143.991 18.4123 143.991 13.8143C143.991 9.21623 147.719 5.48877 152.318 5.48877C156.916 5.48877 160.645 9.21623 160.645 13.8143Z" fill="#FFB6B6"/>
<path d="M157.521 19.6116C157.521 19.6116 158.996 13.9453 157.425 14.9444L154.985 14.7126L156.525 10.5931C156.525 10.5931 153.768 8.52637 152.669 9.73448C151.569 10.9426 151.833 11.6239 150.833 10.0523C149.834 8.48073 147.746 8.51044 145.833 9.6413C143.921 10.7722 142.426 10.9583 142.79 8.8599C143.153 6.76152 142.949 3.19588 144.085 3.60026C145.22 4.00463 144.909 4.23287 145.521 2.76753C146.134 1.30218 146.211 0.489166 147.628 1.11604C149.045 1.74291 152.607 -1.20012 154.079 0.580431C155.551 2.36098 156.836 2.64719 158.122 2.93341C159.407 3.21963 164.573 2.3978 164.141 10.3963C164.141 10.3963 167.588 17.2867 161.378 20.4703C161.378 20.4703 159.693 18.8074 158.516 20.8285L157.521 19.6116Z" fill="#2F2E41"/>
<path d="M77.5804 37.4973L69.4715 37.7507L65.1637 43.0712L60.349 44.0847C60.349 44.0847 58.8286 58.2729 61.1092 63.3401C63.3898 68.4073 62.3762 69.9274 62.3762 69.9274L80.6213 69.6741C80.6213 69.6741 80.1145 66.2328 83.1553 63.2662L84.6803 57.6237C85.4956 54.6069 85.2178 51.3991 83.8961 48.5673L80.6213 41.5511L77.8338 40.5376L77.5804 37.4973Z" fill="#2F2E41"/>
<path d="M62.3762 72.9678L61.2359 74.868C61.2359 74.868 57.6882 79.6818 57.1814 93.3633C56.6746 107.045 60.8558 151.316 60.8558 151.316H66.6421L72.8976 91.4192L81.2547 151.383L88.7301 151.509L88.0966 90.3229C88.0966 90.3229 86.5762 76.3881 82.5218 73.3478C82.5218 73.3478 69.4715 85.1291 62.3762 72.9678Z" fill="#2F2E41"/>
<path d="M51.8228 42.9527C51.8228 45.5831 51.6643 47.5402 48.7915 47.7153C46.0933 47.8798 45.7603 45.5831 45.7603 42.9527C45.7603 40.3224 45.8231 38.2114 48.7915 38.1901C52.1711 38.1659 51.8228 40.3224 51.8228 42.9527Z" fill="#7D78D2"/>
<path d="M68.7112 42.9529C68.7112 45.5832 69.4025 47.5404 65.6799 47.7155C62.8161 47.8502 62.6487 45.5832 62.6487 42.9529C62.6487 40.3226 63.0694 38.4855 65.6799 38.1903C68.1355 37.9127 68.7112 40.3226 68.7112 42.9529Z" fill="#7D78D2"/>
<path d="M66.1131 40.7881H49.2246V44.6848H66.1131V40.7881Z" fill="#7D78D2"/>
<path d="M80.9643 42.1927C80.9643 44.823 80.8058 46.7802 77.933 46.9553C75.2348 47.1198 74.9017 44.823 74.9017 42.1927C74.9017 39.5624 74.9646 37.4514 77.933 37.4301C81.3126 37.4059 80.9643 39.5624 80.9643 42.1927Z" fill="#7D78D2"/>
<path d="M97.8527 42.1929C97.8527 44.8232 98.544 46.7804 94.8214 46.9555C91.9576 47.0902 91.7902 44.8232 91.7902 42.1929C91.7902 39.5626 92.2108 37.7255 94.8214 37.4303C97.277 37.1527 97.8527 39.5626 97.8527 42.1929Z" fill="#7D78D2"/>
<path d="M95.2545 40.0281H78.3661V43.9247H95.2545V40.0281Z" fill="#7D78D2"/>
<path d="M125.056 83.7438C125.056 86.3741 124.898 88.3312 122.025 88.5064C119.327 88.6708 118.994 86.3741 118.994 83.7438C118.994 81.1134 119.057 79.0025 122.025 78.9812C125.405 78.9569 125.056 81.1134 125.056 83.7438Z" fill="#7D78D2"/>
<path d="M141.945 83.7439C141.945 86.3742 142.636 88.3314 138.914 88.5065C136.05 88.6412 135.882 86.3742 135.882 83.7439C135.882 81.1136 136.303 79.2765 138.914 78.9813C141.369 78.7037 141.945 81.1136 141.945 83.7439Z" fill="#7D78D2"/>
<path d="M139.347 81.5791H122.458V85.4758H139.347V81.5791Z" fill="#7D78D2"/>
<path d="M86.9398 48.1774C88.7581 48.1774 90.2322 45.7913 90.2322 42.8479C90.2322 39.9044 88.7581 37.5183 86.9398 37.5183C85.1215 37.5183 83.6475 39.9044 83.6475 42.8479C83.6475 45.7913 85.1215 48.1774 86.9398 48.1774Z" fill="#FFB6B6"/>
<path d="M71.372 34.4571C76.3403 34.4571 80.3679 30.4302 80.3679 25.4628C80.3679 20.4954 76.3403 16.4685 71.372 16.4685C66.4038 16.4685 62.3762 20.4954 62.3762 25.4628C62.3762 30.4302 66.4038 34.4571 71.372 34.4571Z" fill="#FFB6B6"/>
<path d="M69.5659 28.2889L71.6472 24.9771L72.5846 20.4732C72.5846 20.4732 82.0663 22.7854 79.5224 18.161C76.9785 13.5366 70.5032 12.3805 66.1092 15.8488L64.2155 17.6986C64.2155 17.6986 68.4219 13.7678 65.878 12.3805C63.3341 10.9931 63.7966 10.0682 62.4091 11.2243C61.0215 12.3805 61.7153 13.3053 60.0965 12.6117C58.4776 11.918 55.0087 10.9931 55.4712 12.1492C55.9338 13.3053 52.4448 16.3112 53.7268 17.6985C55.0087 19.0859 53.8524 21.8605 56.165 21.1669C58.4776 20.4732 57.3213 23.9415 59.4027 22.5542C59.4027 22.5542 57.6943 24.7309 59.0819 26.3494C60.4695 27.968 62.6074 28.5977 62.3761 30.9099C62.1449 33.2221 67.6976 33.6969 67.6976 33.6969L67.2656 26.9474C67.2656 26.9474 68.6408 25.8201 69.5659 28.2889Z" fill="#2F2E41"/>
<path d="M161.153 43.8088C161.153 43.8088 159.826 48.2989 160.255 51.3681L145.263 71.2294L149.516 75.2949L167.908 57.6002L171.399 48.1087L161.153 43.8088Z" fill="#FFB6B6"/>
<path d="M148.375 78.3228C150.441 75.5857 150.745 72.3326 149.054 71.0567C147.363 69.7808 144.318 70.9653 142.252 73.7024C140.186 76.4394 139.882 79.6925 141.572 80.9684C143.263 82.2443 146.309 81.0598 148.375 78.3228Z" fill="#FFB6B6"/>
<path d="M172.017 27.2983C172.017 27.2983 176.688 28.9925 176.094 32.2047C175.5 35.417 175.274 37.5346 175.274 37.5346C175.274 37.5346 175.78 39.2893 175.12 40.1638C174.46 41.0384 171.071 51.2929 171.071 51.2929L158.88 47.1272C158.88 47.1272 166.026 27.3533 172.017 27.2983Z" fill="#7D78D2"/>
<path d="M204 164.787C204 164.905 203.905 165 203.787 165H0.212867C0.0953051 165 0 164.905 0 164.787C0 164.67 0.0953025 164.574 0.212867 164.574H203.787C203.905 164.574 204 164.67 204 164.787Z" fill="#E6E6E6"/>
<path d="M61.223 43.0891C61.223 46.0325 59.749 48.4186 57.9307 48.4186C56.1123 48.4186 54.6383 46.0325 54.6383 43.0891C54.6383 40.1457 56.1123 37.7595 57.9307 37.7595C59.749 37.7595 61.223 40.1457 61.223 43.0891Z" fill="#FFB6B6"/>
</g>
<defs>
<clipPath id="clip0_181_1438">
<rect width="204" height="165" fill="white"/>
</clipPath>
</defs>
</svg>
